/* XPM */
static char *result[] = {
/* columns rows colors chars-per-pixel */
"64 64 244 2 ",
"   c #070302",
".  c #170804",
"X  c #230D05",
"o  c #2A1409",
"O  c #361909",
"+  c #2E180F",
"@  c #3B2414",
"#  c #3A220E",
"$  c #481D08",
"%  c #4C2307",
"&  c #4C2409",
"*  c #47240A",
"=  c #52250A",
"-  c #542A0A",
";  c #5C2D0A",
":  c #562509",
">  c #5D310D",
",  c #462916",
"<  c #552D13",
"1  c #4B351C",
"2  c #593516",
"3  c #632D0C",
"4  c #63330B",
"5  c #6A360B",
"6  c #6B390C",
"7  c #733E0D",
"8  c #79380C",
"9  c #653B13",
"0  c #6B3C14",
"q  c #663817",
"w  c #753C13",
"e  c #4A3826",
"r  c #583B24",
"t  c #4A2E20",
"y  c #643E21",
"u  c #7A430C",
"i  c #78430C",
"p  c #6C4215",
"a  c #6D421B",
"s  c #67431D",
"d  c #744313",
"f  c #7C4412",
"g  c #754916",
"h  c #7D4A15",
"j  c #73441A",
"k  c #7C451A",
"l  c #754A1B",
"z  c #7C4B1C",
"x  c #7E521C",
"c  c #75501E",
"v  c #594326",
"b  c #5C4C33",
"n  c #684726",
"m  c #734B23",
"M  c #7B4C23",
"N  c #744725",
"B  c #68542D",
"V  c #7A5527",
"C  c #6A4A39",
"Z  c #675439",
"A  c #775537",
"S  c #704D31",
"D  c #7C633A",
"F  c #775C46",
"G  c #655542",
"H  c #7C654B",
"J  c #853C0D",
"K  c #844A0E",
"L  c #87480E",
"P  c #844B14",
"I  c #8B4C13",
"U  c #834D1C",
"Y  c #884916",
"T  c #934D12",
"R  c #984F13",
"E  c #8C5314",
"W  c #83531C",
"Q  c #8A541C",
"!  c #8A591E",
"~  c #935314",
"^  c #9C5514",
"/  c #955916",
"(  c #9E5916",
")  c #94551B",
"_  c #945B1D",
"`  c #9A5C1B",
"'  c #90430F",
"]  c #A15B17",
"[  c #A15D18",
"{  c #A15615",
"}  c #9A621D",
"|  c #A2621B",
" . c #AD691F",
".. c #835423",
"X. c #8C5424",
"o. c #855A24",
"O. c #8C5B24",
"+. c #845B2B",
"@. c #88592B",
"#. c #935C23",
"$. c #925C2B",
"%. c #9A5B23",
"&. c #845A35",
"*. c #945C31",
"=. c #864E22",
"-. c #A15F20",
";. c #8C632B",
":. c #876229",
">. c #936324",
",. c #9B6324",
"<. c #93632C",
"1. c #9B642B",
"2. c #94692C",
"3. c #9C6C2C",
"4. c #9A6A25",
"5. c #9C712E",
"6. c #896735",
"7. c #946A32",
"8. c #9B6A32",
"9. c #9A6D39",
"0. c #966636",
"q. c #9C7435",
"w. c #9D753A",
"e. c #96763A",
"r. c #8E7339",
"t. c #A46C24",
"y. c #A36C2C",
"u. c #AA6E2B",
"i. c #A66723",
"p. c #A3722C",
"a. c #AC742C",
"s. c #AB7529",
"d. c #B27529",
"f. c #B47B2C",
"g. c #B97A2A",
"h. c #A36D33",
"j. c #A66C37",
"k. c #A47333",
"l. c #A47B34",
"z. c #AC7C34",
"x. c #A2743A",
"c. c #AC7C3B",
"v. c #A87738",
"b. c #B37C34",
"n. c #B47A38",
"m. c #C37E2C",
"M. c #866846",
"N. c #8D7249",
"B. c #997846",
"V. c #987A57",
"C. c #906E50",
"Z. c #A77A45",
"A. c #A67C54",
"S. c #B17743",
"D. c #966F65",
"F. c #B9812F",
"G. c #AA823A",
"H. c #B68235",
"J. c #BD8534",
"K. c #BC8C3C",
"L. c #B8863A",
"P. c #BD943B",
"I. c #C38C3C",
"U. c #C68A36",
"Y. c #C4923D",
"T. c #CB923C",
"R. c #C59338",
"E. c #CC8F39",
"W. c #9B8147",
"Q. c #9A805F",
"!. c #A98649",
"~. c #B4844A",
"^. c #BB8B4C",
"/. c #B78946",
"(. c #BA9449",
"). c #A88856",
"_. c #B48A56",
"`. c #AE9157",
"'. c #B79659",
"]. c #AB914F",
"[. c #9E8264",
"{. c #A78866",
"}. c #BA9767",
"|. c #BB9976",
" X c #B38B67",
".X c #BDA178",
"XX c #BEA05D",
"oX c #C28947",
"OX c #C29243",
"+X c #CB9B4B",
"@X c #C89847",
"#X c #D39C44",
"$X c #CB9C53",
"%X c #C69957",
"&X c #C58D51",
"*X c #CDA248",
"=X c #D2A24B",
"-X c #D5A849",
";X c #DAB14D",
":X c #CBA353",
">X c #C7A45A",
",X c #D3A354",
"<X c #D4AC5B",
"1X c #D7AB57",
"2X c #D9B55A",
"3X c #C79B65",
"4X c #C49876",
"5X c #C69461",
"6X c #C8A867",
"7X c #D3AC64",
"8X c #D4AA69",
"9X c #DCB563",
"0X c #D8B76A",
"qX c #C6A876",
"wX c #CCB477",
"eX c #D8B876",
"rX c #CFAF70",
"tX c #E2BD6B",
"yX c #E2BD75",
"uX c #E0B656",
"iX c #DDC276",
"pX c #DEC569",
"aX c #E5C669",
"sX c #E5C678",
"dX c #EAD27D",
"fX c #E0C15E",
"gX c #CBB487",
"hX c #D6B987",
"jX c #D5B892",
"kX c #DFB896",
"lX c #DBC489",
"zX c #D9C592",
"xX c #E7C986",
"cX c #EBD487",
"vX c #EAD796",
"bX c #EDD692",
"nX c #F5E699",
"mX c #EAD3A8",
"MX c #F5E9A7",
"NX c #F7EAB8",
"BX c #F8F3B7",
"VX c #F6F3A9",
"CX c #F9F0CA",
"ZX c None",
/* pixels */
"ZXZXZXZXZXZXZXZXZXZXZXZXZXZXZXZXZXZXZXZXZXZXZXZXZXZXZXZXZXBXBXBXCXCXCXZXZXZXZXZXZXZXZXZXZXZXZXZXZXZXZXZXZXZXZXZXZXZXZXZXZXZXZXZX",
"ZXZXZXZXZXZXZXZXZXZXZXZXZXZXZXZXZXZXZXZXZXZXZXBXVXcXsX0XhXyX0X9XeXrXrX6XsXdXnXNXCXZXZXZXZXZXZXZXZXZXZXZXZXZXZXZXZXZXZXZXZXZXZXZX",
"ZXZXZXZXZXZXZXZXZXZXZXZXZXZXZXZXZXZXZXZXBXnXrX5X8X%X$.q < : : $ = : 3 U y.^.8XrXeXdXMXCXZXZXZXZXZXZXZXZXZXZXZXZXZXZXZXZXZXZXZXZX",
"ZXZXZXZXZXZXZXZXZXZXZXZXZXZXZXZXZXZXnXsX^.&X@.O X C n 4XN n %X^.1.c.m A 1 O O q 1.%XhXeXbXCXZXZXZXZXZXZXZXZXZXZXZXZXZXZXZXZXZXZX",
"ZXZXZXZXZXZXZXZXZXZXZXZXZXZXZXZXMXyX^.S.o + y |.< o , ~.X.< <Xx.V k ^.c.eX).X A , . < 9.rXeXcXCXZXZXZXZXZXZXZXZXZXZXZXZXZXZXZXZX",
"ZXZXZXZXZXZXZXZXZXZXZXZXZXZXBXiX_.j..   , * n %X2 &.rX<.@.O o 2 , o q X 9.r @ X {.A.Z.+ # x.<X0XMXZXZXZXZXZXZXZXZXZXZXZXZXZXZXZX",
"ZXZXZXZXZXZXZXZXZXZXZXZXZXnX5X%X, S ].. xXA 3X+. XhXO cXsXaXeXx.aXaXaX+ .X9.@ ~.V }.e.V.S.@ n ^.7XdXCXZXZXZXZXZXZXZXZXZXZXZXZXZX",
"ZXZXZXZXZXZXZXZXZXZXZXZXxX_.=.N.3X&.n A.0.@ m sXtXtX$ < 0 5 3 O 5 u Y $ 9XfXdX'.. < Z.o M.o . # ;.$XiXNXZXZXZXZXZXZXZXZXZXZXZXZX",
"ZXZXZXZXZXZXZXZXZXZXZXeX&X@ kXZ., , A mXbXsXX 2 1 C.A...y l m j a q w X.1.z w <  XpXpX, r p , 0.r B $XrXnXZXZXZXZXZXZXZXZXZXZXZX",
"ZXZXZXZXZXZXZXZXZXZXrX5X+ hX&.X y O ^.uXn., {.S M.A.N A B.!.5.%.5.4...j X.h.q O.M } fX9X. . M.l 4X/.O &XeXnXZXZXZXZXZXZXZXZXZXZX",
"ZXZXZXZXZXZXZXZXZXeX%XX .Xn ~.}.mXxX. @ }.C _.C A.y r y Z.4XqX= ,.y.3.m 3 X.3.j ;.q :.X  XpXM.. N V 3X+ ~.0XnXZXZXZXZXZXZXZXZXZX",
"ZXZXZXZXZXZXZXZXhX$XF S.C.3XA xX<X< |.F V.V.n G A.y S 9.^.S./.3 N y.k...5 Y k.< 3.l 9.9 s *X9XrXl 4Xe.C X ~.eXnXZXZXZXZXZXZXZXZX",
"ZXZXZXZXZXZXZXxX3X+ A X yXA..X9., M.gXC.v D.S V.&.r r 9.v.>XtX= w S.%.k.O.Q k.2 y.n ,.y :.w.O.k.@ q F ^._.+ &X5XMXZXZXZXZXZXZXZX",
"ZXZXZXZXZXZXbX$X+ N x.zXkX0XA D.C M.D.M.A |.n |.y mX8XeX0X+.8.bX%X'.$Xw...8 n.N k.q z.< x.9.m @ sXeX. . S.&.O 7X7XCXZXZXZXZXZXZX",
"ZXZXZXZXZXMX3XS N 6.. hX0XB.D.F C t  XD.n |.A  X XyX$ $ w.0.0.tXJ J 1.1.n.$.c.0 a.a G.3 r.8.U q M ;XsXo . D.~.= 9XmXZXZXZXZXZXZX",
"ZXZXZXZXZXeX3Xw.gX{.@ qX0.H H C., M.gXC.n  X Xr  XyX: $ q.y.O.tXJ J 1.$.a.X.) z.p.q c.P N c.j 0 q z b.. 1 + D.r...:XnXZXZXZXZXZX",
"ZXZXZXZXnX$XS #Xk.).xXb Z G M.zXrXqXvX|.mXsX XgX XbX: = w.X.k sX' ' ;.0.) p.) 3.T 3.9.i.3 9.xX2 p q + mX'.@.. y + $X:XCXZXZXZXZX",
"ZXZXZXZX8XV.qX%.'.vX<X+ t r + ].G _.}.{.8Xr eXyX0.yX; : w.9.&.tX' ' ;.5XxXy.#.z.#...b.h.U 0 @X2Xz U z b.@X1 _.J o 3 <XcXZXZXZXZX",
"ZXZXZXbX8XA v.&Xe.pXe G b e G H C.{.V.{.F y A.X   yX; : 7.Z.q.aXT T @.(.H.' ^ b.#.$.v.-.1.w  X+.h.t.p.k.$X<X+ y 4XS.S.^.NXZXZXZX",
"ZXZXZXyXB.6X#.>Xr.o W.Q.D.V.Q.V.V.qXhXeXjXzXvXhX8X>X: ; +.(.$XoXR T #.n.G.^.%XN ^ 9.v.v.) 1.#X_.a +.8...w h.X O J M.3 &XcXZXZXZX",
"ZXZXnX8XV #.=XrXpX. v Z e G G G Q.|.N.        . o O : 3 5 f I T T R ^ ] [ [ { T ~.w Z.c.v.-.a.y.Y w 6 U U S.:XX M.&X&.oXZ.NXZXZX",
"ZXZXyX3XeXY.I.dXXX].W.e b v v D Z N.B.          o O = 5 w K ' ' R ^ { { { { { { ^ n.N v.v.v.^.&.8.v.j.y.k.8.OX'.n.*.q Y x.nXZXZX",
"ZXZX8Xn (.=.#XaX# v D D W.Q.W.v v :.V.e e e e X o O = 5 N N j N U w ' ] { { { R R ( n.w *.$.oX%Xw w k k =.X.I.,X8 *.X.5 S.7XZXZX",
"ZXcX9XZ.@X(.U < P.W.B B e e W.W.W.).q.e.Z.p OX< O * > 4 <X1.^./.z.%.I.V.{ { { { { R [ _.( %.0.Y y.j.a.u.u.h.X.n.: j.B.*.n.Z.NXZX",
"ZXxXeX7X2X9XcXZ 6.n 1 6.W.W.1 1 b H Q.Q.[.6.(.> O & 4 6 ,X&.xXeXxX8XS.s.V.{ ^ { { ^ ^ g.8 U.$X*.h.Y w Y 8 %.u.jX4X8 T S.=.0.nXZX",
"ZXyXA.i.U.T.aX2 o.G.G.D 2 D W.G.6.B 1 v s 2X(.9 * - 9 6 ,X1.,X2X1X<XhX).g.' { { ^ ^ ^ d.X.A.u.-.) j.j.j.j.0.) U.&X3 A.T 8 j.cXZX",
"ZXyXN u.g.1XsXy.G.V B s W.r.v v B r.].4.1 cX:Xp * > i 6 $Xv.(.(.(.9.1X9Xb.` [ ( ( ^ ^ S.) ~.u.j.X.%.) -.i.J L j.oX-.8 8 8 oX'.ZX",
"mXsXX.g.d.E.| (.6.p :.G.G.s V G.W.V G.  H.2.>Xp - > f f $X<.U L.9XaX1.I 6X^ { [ ( ( ( 3Xh.+Xj.` n.n.=.Y w j.8 n.b.T J J J &X0.ZX",
"NXcXU.$X8XbXv w.:.p.(.q.2.G.G.2.1 K.o W.o 1 >Xp 6 9 f f +XB.}.E I =.~.gX$.{ [ [ [ ( %.oXS.~...%.^ %.n.*.%.8 v.w w q 3 q 3 S.*.ZX",
"bXsX#X1X1XaXB.<.H.P.G.o.G.K.2.B L.X G.b B B 6Xg 4 d E P @X/.K.P Y _.eXQ ( [ [ [ ( ( 4XE t.H.j.n.y.T n.T @.y.M M M N w M w 5X*.BX",
"yXsXE.U.uXaX;.y.P.(.5.O.K.q./.x @ 4.6.6.G.>.;Xg 6 d E ~ i.4.y.t.,.! P [ [ [ { [ j.4XU R L.K.&Xb.n.%.X.9.T @.U M N N y q w _.*.BX",
"8XsX,XyX1X,Xy.a.(.K.2.4.(.t.2 /.h x -XfX2Xg *Xx p K E / | | ` | [ | | ( [ [ ( [ I P A.U rX9XS.d./.j.T =.8.$.X.X.*.%X$X_.@.A.X.VX",
"8XsXuXxXH.#Xg.f.OXK.3.t.6 G.f.n r.W.lXXX>X6.<X! h E E ` } } | | | [ | [ [ { ( ( ( ( K t.2.G.f u.,.I j.) %.%.#.%.#.$.$.X.0.*.=.MX",
"8XtX#XtX-XdX6.z.Y.(.k.h J.h G.e.W.W.*XP.*Xr.<X! P E / / }.>X7X6X%X%XZ.O.^ [ [ ( ( ( ^ T n.P k.^ I 1.T #.) X.X.U O.oX+X%X*.*...BX",
"nXyX#XT.-XaX!.b.I.@XG.W } d.G.l.4.5.iXpXpX>.:X} P ~ / / E.:X2.2.q.l.G.K./.&.( ( ^ ^ ^ ^ I 6XT 9.%.Y P =.M a j f f M M Q X.Z.X.BX",
"MXdXE.m.E.aX>XK.U.E.OX2.~ XX/ :.x x *X].*Xx +X>.E / ^ / Y.k.e.5.c.w.].<.7X(.9.^ ~ / ^ ^ R U.' T j.K h.OX$X8X>XX.f b.H.S.U  X*.ZX",
"xXsXE.#XT.g.d.@Xb.F.T.L.(./ '.O.D :.;X-X;Xe.pX4.E / / / T.P ;X2X;X2X-X2X-X>XOX~ ^ ~ ~ T T U.,.9XL.rXZ.6XL.&X%X#.U U w U J 4X@.ZX",
"ZXyX&X,X<X1XlXT.I.a.f.U.R.+Xk.>.G.W.wXpXpX5.:X4./ / / / E.'.@X(.(.3.g W c.x +XI R E T ~ I OXf 4 d 2.%XI.>XJ.0X<.=.X.X.X.k 5XB.ZX",
"ZX8X8X,XT.#XfXg.T.K.H.f.f.U.R.5.x P.G.G.P.x Y.} / / / E R.*X/.(.(.(.} i J.K 1XK ~ E T T L +XK _ +._.c.I.H.OX$X$.=.=...0.=.S.Z.ZX",
"ZX,XyX#XU.1XfX/.J.U.U.I.H.t.s.#X].E } W.h G.H.4./ / K E R.5.G.x g g XX8.q.qX..K K L L L I <XP o._.<...........z M k k $.=.*.wXZX",
"ZX8XtXm.m.m.I.%.R.F.d.g.F.U.J.R.*XG.2.x F.fXP.} ~ E K K R.P.2X5.w.2.c :.0X} i K K K u K _ '.(._.<.z +.U W U z z z U U k _.*.vXZX",
"ZXZXyX$X8X+X@X$XU.U.U.J.f.t.H.0X} | F.<X! ! ! h ~ h i i R.XX(.2X:X<X:Xt.4 i i i K K K u 0Xz o.U z ..Z.; ; z d 6 ; ~.3 ; &X@.ZXZX",
"ZXZX,XsXU.=X#XaX7XJ.f. .d.g.F.;X*XF.P.G.K K h u K u i i > - ; ; ; ; 4 7 i i i i i d 7 3XO.r.;.x.M B.4 7 f #.7X<X5 = 0.3 j.~.ZXZX",
"ZXZXtX7Xg.eXI.T.fX .F.U.F.U.H.F.G.F.;Xg / / / E i 6 i 4 i i i i i i 7 i i i i i i E eX! '.].!.!.!.5 6 6 !.c.OXx.N 9.5XZ.$.bXZXZX",
"ZXZXZX@X8X#XtXtX-XE J.s.} t.J.fXx F.;Xi / / K u i > 6 i 4 > 6 6 6 6 6 6 i i h (.eXK.> '.`.;.!.e.4 6 5 P @.>.*X& w.M q S...ZXZXZX",
"ZXZXZX9X1X .eXOX} :Xs. .f.} t.F.G.h P.F.R.;X*X*XXXXX4 4 h pX:X6X5 4 G.*X>XP.s.h ; 4 %X].V 9.l g eX!.d w.q.'.* o.3X%X*.1.kXZXZXZX",
"ZXZXZXZX+X7X@X9X].2XfXs.F.J.P.aX4./ i W.> c g :.0X*X4 4 W '.c <X4 4  .V >X;.5.W :.w.XX6.e.j a !.@XB.!.].>X1X}.+.7.& ~.X.ZXZXZXZX",
"ZXZXZXZX9X1Xi.OXiX .-XXXH.F.5.-XfX4.E x F.} x p s.*X> 4 i XXp 2X; 4 } x 2.'.vX*X7.lXwX].wXV 6XrXm +.6.6XK.& c.- Z.Z.8.lXZXZXZXZX",
"ZXZXZXZXZX@XtX{ ` H.-XG.K t.5.4.G.p.E W G.h o.p.fX-X> > i 6X5.fX; ; } e.r.].7.].7.R.!.7XH.!.*X;.m m - L.o.9 }.c.- j.0.ZXZXZXZXZX",
"ZXZXZXZXZXcXOX%Xu.@XrX/ dX3.2.5.G.4.W x F.4.g E :.-X> > p XX:.-X; ; } e.'.;.V ].).a `.B V ).V S m W.eXO }.q :.% 6XX.MXZXZXZXZXZX",
"ZXZXZXZXZXZX,X;Xh.y.` a.-X-X2.5.G.H.h ! G.W ! >.h *X; > i (.p @X> 4 >.!.'.e.].l `.9 '.q B.W.6.m W.H.K.V * > q _.h.gXZXZXZXZXZXZX",
"ZXZXZXZXZXZXZX+X=XP U.7XK ;X@X; G.G.>.c s.i 5.x >. .G.4.G.>.V } } 4.s.l.j r.].9 '.a `.6 ].).6.> OXY.).7...'.&.,.C.ZXZXZXZXZXZXZX",
"ZXZXZXZXZXZXZXZXT.0Xf OX,.(.- aX0X4.x 2.z.5 p.p 5.g & g 5.K.*Xp - > 5.V > B.].9 `.m `.V r.`.gX6X= = k.v.Z.n h...ZXZXZXZXZXZXZXZX",
"ZXZXZXZXZXZXZXZXZXg.sX6 4.d ;.R.*X9Xl G.>.o.5.p x 5.p > 4.l.fX2 - 5.e.x s W.].p '.6.`.N.B.<Xf.y.% N.% 3.V z.z ZXZXZXZXZXZXZXZXZX",
"ZXZXZXZXZXZXZXZXZXZXi.sXd =XP.: rX*XG.>XW q.W 2.g 4.g - p x 4.2.2.2.:.p s `.W.B.!.r.).6.`.#Xg % %Xn 2.A j.U NXZXZXZXZXZXZXZXZXZX",
"ZXZXZXZXZXZXZXZXZXZXZX| *X6.: W (.} ].#XR.<X2 3.c g 4.x p 6 g ! x x x V ].W.V `.6.zXF.*X- % 3.qX@X9 ).,.U CXZXZXZXZXZXZXZXZXZXZX",
"ZXZXZXZXZXZXZXZXZXZXZXZXs.f.6X4 (.F.* f./ @X! 0X/.x g >.O.l p p c V r.W.e.W.zX6X].Y.p.s c qXc.~.= qX%.9.ZXZXZXZXZXZXZXZXZXZXZXZX",
"ZXZXZXZXZXZXZXZXZXZXZXZXZX&Xd.<Xx ; - s.>.a % t.R.R.G.G.*X*X:X* zXpXpX6.*XJ.R.G.& 6.& @X- >X5 N.^.U gXZXZXZXZXZXZXZXZXZXZXZXZXZX",
"ZXZXZXZXZXZXZXZXZXZXZXZXZXZXsXF.J.0X9 p @Xs.* & 4 % 6.! t.H.Y.% P.P.s.g ; l !.l.e.>.p qX- l 6X#.O.NXZXZXZXZXZXZXZXZXZXZXZXZXZXZX",
"ZXZXZXZXZXZXZXZXZXZXZXZXZXZXZXZX9Xf.u.7Xs % & & g ,.P.o.l % p * e.c 5.; H.; W.5.- d - D wX_ _ zXZXZXZXZXZXZXZXZXZXZXZXZXZXZXZXZX",
"ZXZXZXZXZXZXZXZXZXZXZXZXZXZXZXZXZXZXzXY | @X~.> % w :.y.z.V b.p t.2 l.W.>X- B.> m qXOX} _ hXZXZXZXZXZXZXZXZXZXZXZXZXZXZXZXZXZXZX",
"ZXZXZXZXZXZXZXZXZXZXZXZXZXZXZXZXZXZXZXZXxX#.K ` J.&Xc.V > = % % % = - 2 6.XXiXK.i.Q v.mXZXZXZXZXZXZXZXZXZXZXZXZXZXZXZXZXZXZXZXZX",
"ZXZXZXZXZXZXZXZXZXZXZXZXZXZXZXZXZXZXZXZXZXZXZXeX8.P I ) ) i.d.f.F./ ~ E / I / ].vXZXZXZXZXZXZXZXZXZXZXZXZXZXZXZXZXZXZXZXZXZXZXZX",
"ZXZXZXZXZXZXZXZXZXZXZXZXZXZXZXZXZXZXZXZXZXZXZXZXZXZXZXZXxXwX}.}.XX7XhXvXNXCXZXZXZXZXZXZXZXZXZXZXZXZXZXZXZXZXZXZXZXZXZXZXZXZXZXZX"
};
