/* XPM */
static char *result[] = {
/* columns rows colors chars-per-pixel */
"64 64 158 2 ",
"   c #000917",
".  c #000D19",
"X  c #02121D",
"o  c #04181E",
"O  c #061720",
"+  c #071821",
"@  c #091A22",
"#  c #0C2226",
"$  c #0D2529",
"%  c #0C2B2A",
"&  c #112627",
"*  c #12252A",
"=  c #132C2B",
"-  c #182F2B",
";  c #13312F",
":  c #1A312C",
">  c #1F392E",
",  c #1A2B30",
"<  c #153532",
"1  c #1D3231",
"2  c #173C35",
"3  c #193D35",
"4  c #1A3F38",
"5  c #223436",
"6  c #233E32",
"7  c #243638",
"8  c #26393A",
"9  c #283E3D",
"0  c #1D443C",
"q  c #1F4A3E",
"w  c #254433",
"e  c #2A4736",
"r  c #2D4D36",
"t  c #22413C",
"y  c #214B3F",
"u  c #2E4D38",
"i  c #304F39",
"p  c #305137",
"a  c #34543B",
"s  c #38553F",
"d  c #395A3E",
"f  c #2F4141",
"g  c #234C40",
"h  c #2D4C44",
"j  c #304243",
"k  c #265444",
"l  c #285241",
"z  c #295C49",
"x  c #3A5644",
"c  c #325D44",
"v  c #3F5947",
"b  c #36524A",
"n  c #355D4E",
"m  c #2E644E",
"M  c #3E6846",
"N  c #34674C",
"B  c #2E6650",
"V  c #2F6850",
"C  c #316B52",
"Z  c #3E7956",
"A  c #3B7353",
"S  c #435B4E",
"D  c #435651",
"F  c #465C54",
"G  c #4A5F56",
"H  c #4D5F59",
"J  c #466E45",
"K  c #496F48",
"L  c #436E4A",
"P  c #4C744A",
"I  c #4F7B49",
"U  c #527D4C",
"Y  c #4E625A",
"T  c #52645E",
"R  c #55685F",
"E  c #457952",
"W  c #43725C",
"Q  c #546660",
"!  c #566A60",
"~  c #597264",
"^  c #5D7B6A",
"/  c #56814E",
"(  c #4F885A",
")  c #578250",
"_  c #5A8453",
"`  c #5C8953",
"'  c #538F5D",
"]  c #598D59",
"[  c #649357",
"{  c #659558",
"}  c #6A9F5E",
"|  c #71A75E",
" . c #5B8B6F",
".. c #668962",
"X. c #698B65",
"o. c #61856F",
"O. c #669F61",
"+. c #638871",
"@. c #778C7B",
"#. c #798D7C",
"$. c #6D977B",
"%. c #6E987C",
"&. c #769374",
"*. c #799576",
"=. c #79907D",
"-. c #6CA865",
";. c #73A760",
":. c #74A961",
">. c #78AE64",
",. c #7EAF6D",
"<. c #7BB265",
"1. c #7AB468",
"2. c #84BF6B",
"3. c #86C06C",
"4. c #89C46D",
"5. c #8BC86D",
"6. c #8DCA70",
"7. c #91CE72",
"8. c #92C779",
"9. c #92D073",
"0. c #9AD27E",
"q. c #849C83",
"w. c #8A9F8A",
"e. c #8CA18C",
"r. c #80AB8A",
"t. c #90A58F",
"y. c #90BA80",
"u. c #91A690",
"i. c #92AA91",
"p. c #95B195",
"a. c #98B899",
"s. c #A7BDA1",
"d. c #A8BFA2",
"f. c #9DC19F",
"g. c #A5C797",
"h. c #A6D490",
"j. c #B0E097",
"k. c #A9CCA7",
"l. c #B7D2AB",
"z. c #B8D9B2",
"x. c #BEE3AA",
"c. c #C0D7B5",
"v. c #C2D9B7",
"b. c #C4DCB9",
"n. c #C8DEBC",
"m. c #C6E2BC",
"M. c #CAE5BF",
"N. c #CAF0B3",
"B. c #CBE6C0",
"V. c #D1ECC4",
"C. c #D3F0C1",
"Z. c #D7F1C8",
"A. c #DEF6CE",
"S. c #E0F8CF",
"D. c #E5FDD3",
"F. c #EDFFD9",
"G. c #F2FFDE",
"H. c #F5FFE0",
/* pixels */
"S.S.S.S.S.S.S.S.S.S.S.S.S.S.S.S.S.S.S.S.S.S.S.S.S.S.S.S.S.S.S.S.S.S.S.S.S.S.S.S.S.S.S.S.S.S.S.S.S.S.S.S.S.S.S.S.S.S.S.S.S.S.S.S.",
"S.S.S.S.S.S.S.S.S.S.S.S.S.S.S.S.S.S.S.S.S.S.S.S.S.S.S.S.A.A.S.S.S.S.S.S.S.S.S.S.S.S.S.S.S.S.S.S.S.S.S.S.S.S.S.S.S.S.S.S.S.S.S.S.",
"S.S.A.A.S.S.S.S.S.S.S.S.S.S.S.S.S.S.S.S.S.S.S.S.S.S.S.S.S.D.S.S.S.S.S.A.D.A.S.S.S.S.S.S.S.S.S.S.S.A.S.S.S.S.S.S.S.S.S.A.A.S.S.S.",
"S.S.A.S.S.S.S.S.S.S.D.D.D.D.D.D.D.D.D.D.D.D.D.D.D.D.D.D.D.D.D.D.D.D.D.D.D.D.D.D.D.D.D.D.D.D.D.D.D.D.D.D.S.D.D.S.S.S.S.S.S.A.S.S.",
"S.S.S.A.S.S.S.S.D.D.D.D.D.D.D.D.D.D.D.D.D.D.D.D.D.D.D.D.D.D.D.D.D.D.D.D.D.D.D.D.D.D.D.D.F.D.F.D.D.D.D.D.D.D.D.D.S.S.S.A.A.A.S.S.",
"S.S.S.S.S.A.S.S.A.A.S.A.S.A.A.S.S.S.S.S.S.S.S.S.A.S.A.S.S.S.A.S.A.A.D.A.A.A.A.A.A.S.S.S.S.Z.S.S.A.A.A.A.A.S.S.S.A.S.A.S.S.S.S.S.",
"S.S.S.S.S.S.Z.Z.V.B.b.b.b.b.v.v.v.v.v.v.v.v.b.v.c.v.v.v.b.c.b.c.v.v.v.v.v.v.v.v.v.v.v.v.v.v.v.v.v.v.b.b.m.m.B.V.Z.A.A.S.S.S.S.S.",
"S.S.S.S.S.S.Z.M.z.k.k.a.i.u.t.t.t.t.t.t.t.t.t.t.u.t.t.t.t.t.t.t.t.t.t.t.u.u.e.u.t.t.t.t.t.t.t.t.t.t.i.p.a.f.k.z.n.Z.S.S.S.S.S.S.",
"S.S.A.S.D.A.V.z.a.r.%.+.^ ~ ! R R R ! R ! ! R ! ! R R R ! ! ! ! ! ! ! ! ! ! ! ! ! R ! ! ! ! ! Q ! ! ~ ^ +.%.r.f.z.V.S.S.S.S.S.S.",
"S.S.S.D.D.A.B.k.r. .W n h 9 7 5 5 7 7 7 7 7 7 7 7 7 7 7 7 7 7 7 7 7 7 7 7 7 7 7 7 7 7 7 7 7 7 5 5 7 9 l n W  .r.k.M.S.D.D.S.S.S.",
"S.S.S.D.D.A.M.f.%.W k 2 % # + O + + @ @ @ o @ o @ @ + @ + + @ @ @ o + @ @ + + @ o @ + + + + + + O + # % 2 k W %.f.m.S.D.S.S.S.S.",
"S.S.A.D.D.A.m.a.+.n 0 % # X X . . . X . . X . X . X . X . X . . X . X . . X . . X . X . . .         X o $ 0 n +.a.n.S.D.D.S.S.S.",
"S.S.S.D.D.S.b.i.^ h % # o X X X . . X X X X X . X X X X O X . O X X . X X X . X X X X . . .         X O + % h ^ i.b.S.D.D.S.S.S.",
"S.S.A.D.D.S.b.i.~ t # X X O + o + X + + o + + + o o o o O O O O o o O O O O O O o o X + + + o o O O + X o & 9 ~ u.b.S.D.D.S.S.S.",
"S.S.S.D.D.S.v.u.! 7 @ . X + + O O + + + + + + + + + + + O O O O + + + + O O O O + + @ & * = - : : - = @ o @ 7 Q u.v.S.D.D.S.S.S.",
"S.S.S.D.D.A.v.t.Q 5 o . X X O + + + + + + + + + + + + + O O O O X X X O X O X O X + @ - 6 i a s d a r > & @ 7 T e.b.S.D.D.S.S.S.",
"S.S.D.D.D.A.c.e.R 7 o . X o O O @ O + O @ O + + O O O O @ O O O O X X X O . X X X o & 6 d P ) ` ` ) P p : & 7 T e.v.S.D.D.A.A.S.",
"S.S.A.D.D.A.v.u.R 7 @ . X O @ O @ O O @ O @ O + O O O O O O O @ + + O O + + + X X o - u P { :.<.<.:.{ J w = 7 T e.v.S.D.D.D.S.S.",
"S.S.S.D.D.A.v.u.! 7 o X X + @ O O O O O O O O O O O O O O O @ # * = - : - - * & @ @ - a _ | 2.8.6.2.;.U r : 7 Q e.v.S.D.D.S.S.S.",
"S.S.S.D.D.A.v.u.! 7 o . . @ O @ @ O O O O O O O O X O O O O @ 1 6 u a d x a i > & & - s _ >.4.7.7.4.>./ u : 7 T e.b.A.D.D.S.S.S.",
"A.A.A.D.D.A.c.t.! 7 @ X . @ + + O O O O O O O O O O O X X O * 6 d P _ ` ` _ P s > * - a _ >.4.7.7.4.>.U r : 7 Y e.v.D.D.D.S.S.S.",
"A.A.D.D.D.D.v.t.R 7 @ . X X + + O @ O @ O O O O @ @ O O X O - u P { :.<.<.;.{ K e - - i U :.2.7.6.3.:.U r - 7 T e.c.A.D.D.A.S.S.",
"D.A.A.D.D.A.v.u.! 7 o X X + X @ O O @ @ @ @ # # $ @ $ @ O @ - a U :.2.5.6.2.;.U u - - u U :.2.6.6.2.:.U r - 7 T e.v.A.D.D.S.S.S.",
"A.A.D.D.D.S.v.e.R 7 @ . X + + + O + @ $ ; ; < 1 < < ; % @ @ - a ` >.5.7.7.5.>./ a : - i U :.2.5.6.3.:.I r - 7 T e.v.A.D.D.S.S.S.",
"S.S.S.D.D.A.v.t.! 7 + . X + + + O @ @ = 2 0 q g g q 0 < $ $ - a _ >.4.7.7.4.>.U a - - p U :.2.7.5.2.| I u : 7 Y e.b.A.D.D.S.S.S.",
"S.S.A.D.D.A.v.t.! 7 + X . + + X O O @ ; 0 k z z m z k 4 % @ - a U :.2.6.7.2.>.U p - - u U :.2.6.6.2.:.U u : 7 Q e.v.A.F.D.A.S.S.",
"S.A.D.D.D.D.v.i.R 7 @ X X @ O O O + $ < q z V C V B z 0 < $ - a U :.2.7.6.2.;.U u : - i U :.2.6.6.3.-.U r - 7 Y e.v.A.D.D.S.S.S.",
"S.A.A.D.D.A.v.e.! 7 o . . O O O O + $ < y z V C C B z 0 = # - p _ ;.2.5.5.2.;.U i - - u U :.2.5.5.2.| I r : 7 Q t.v.A.D.D.S.S.S.",
"S.S.D.D.D.A.v.u.! 7 @ X X o O X O O $ < 0 z B C V V z 0 ; $ - p U | 2.5.5.2.| U u - - u U | 2.4.5.2.| I r - 7 T e.v.A.D.D.D.A.A.",
"S.S.A.D.D.A.v.t.R 7 o . X o O O O O $ < g z C C C V z q ; # - a U ;.2.6.6.2.:.U i - - i U :.2.6.6.3.| U u : 7 Y e.v.A.D.D.A.S.A.",
"S.S.S.D.D.A.v.t.! 7 @ . X o + o X O $ 2 l N A Z Z A N y < $ : s ` 2.4.0.h.0.2.~ x - , i _ 2.8.0.0.8.,._ i , 7 Y e.v.A.D.D.A.S.S.",
"S.S.S.D.D.A.v.t.! 7 @ X X o + X O O * 8 c E ( ' ' ' E c < $ 1 v X.y.h.j.j.g.2...x 1 1 b ..y.h.j.j.h.y...x 1 7 Q e.b.A.D.D.D.S.S.",
"S.S.A.D.D.A.v.t.! 7 O O X O O O O O = e L ] O.-.-.O.] M w & 5 F #.g.c.N.N.N.g.&.S 1 5 S &.g.z.N.N.v.h.&.D 1 7 Y e.v.A.D.D.S.A.S.",
"S.S.S.D.D.A.v.t.! 7 O . X O O X O O - i I } 1.2.3.1.} P e - 5 Y w.l.V.S.S.N.d.2.Y 5 5 Y 2.l.V.A.S.C.d.2.H 7 7 Y w.v.A.D.D.D.S.S.",
"S.S.A.D.D.S.v.u.! 7 @ . X O O X . O - a ) :.2.6.5.3.| U r : 7 T w.c.S.F.G.A.v.e.Y 7 7 Y w.c.A.G.H.A.b.e.H 7 8 H w.v.A.D.D.S.S.A.",
"S.S.D.D.D.A.v.t.! 7 O . X O O X O O - a _ >.4.7.6.3.| / r : 7 T t.b.S.G.H.F.v.e.T 7 7 Y w.c.A.H.H.S.b.e.T 8 7 H w.v.A.D.D.A.A.D.",
"S.S.S.D.D.A.v.t.! 7 O . O O O O X O , a _ :.4.7.9.4.>.U r : 7 T e.b.S.G.G.A.v.e.Y 7 7 T e.v.S.G.G.A.v.e.T 7 7 T e.v.S.D.D.S.S.S.",
"S.S.S.D.D.A.v.t.! 7 + X . O O X X O - x ) :.3.5.5.3.| U r - 7 T e.c.S.F.F.Z.v.e.Y 7 7 Y e.v.S.F.G.A.v.e.H 7 7 H w.v.A.D.D.S.S.S.",
"S.S.S.D.D.D.v.u.! 7 + X X O O X O + - p ) :.3.6.5.2.:.U r : 7 T e.v.A.F.G.S.c.e.Y 7 7 Y e.c.A.F.F.A.z.w.T 7 7 T e.z.A.D.D.S.S.S.",
"S.S.A.D.D.A.v.e.! 7 @ . X O O X X + - a ) :.3.6.6.2.| U r - 7 T e.v.A.F.F.A.c.w.Y 7 7 Y e.v.A.F.F.A.c.w.H 7 8 H w.v.A.D.D.S.A.S.",
"S.S.S.D.D.A.v.t.! 7 @ X X o O O X O - a ) :.2.6.6.2.;.U u - 7 T e.v.S.H.F.A.v.w.H 7 7 Y w.v.A.F.F.S.z.e.Y 7 7 Y w.v.A.D.D.A.S.S.",
"S.S.S.D.D.S.v.t.! 5 + . X o O X O O = a ) :.2.6.6.2.:.U u - 7 T e.v.S.F.F.A.v.w.Y 7 7 Y e.v.A.F.F.S.c.w.Y 7 7 Y w.v.A.D.D.D.A.S.",
"S.S.S.D.D.A.v.t.! 7 + X X O O O X O - a ) :.2.6.6.2.| U r - 7 T e.v.A.F.F.S.v.w.Y 7 7 T w.c.A.F.F.S.c.e.Y 7 7 Y w.v.A.D.D.S.S.S.",
"S.S.S.D.D.A.v.t.! 7 @ . X o O X X O - x ) :.2.6.6.2.| U r - 7 T e.c.A.F.F.A.v.w.Y 7 7 Y w.c.S.F.F.S.v.w.T 7 7 Y e.v.A.D.D.S.S.S.",
"S.S.S.D.D.A.v.t.! 7 @ X X O O X X + : a ) :.2.6.6.2.| U u - 7 T e.v.A.F.F.A.v.w.Y 7 7 Y e.c.S.F.F.A.c.w.H 7 7 Y w.v.S.D.D.S.S.S.",
"A.S.S.D.F.A.v.t.Q 7 @ . X O O X X o - a ) :.2.6.6.2.:.U r - 7 T e.v.A.F.F.A.v.w.Y 8 7 Y w.v.S.F.F.S.c.w.T 7 7 T e.v.A.D.D.S.S.S.",
"S.S.S.D.D.A.v.t.! 7 O . X O O X X O - a ) :.3.6.6.4.| U r - 7 T u.v.S.G.F.A.c.w.Y 7 8 Y e.b.S.F.G.S.v.w.Y 7 7 T w.z.A.D.D.S.S.S.",
"S.S.D.D.D.A.b.e.Q 7 O . . O O O O + - d _ >.4.9.7.5.>.U i - 7 T u.n.D.H.H.D.n.e.T 7 8 T e.b.D.G.G.D.b.t.T 7 5 H w.v.A.D.D.S.S.S.",
"S.S.S.D.D.A.v.t.! 5 O . . o O O . @ - s _ <.5.7.9.4.>.U r - 7 R t.n.F.G.G.D.n.t.T 8 7 T t.n.D.H.G.D.n.t.Y 7 7 H w.c.A.D.D.S.S.S.",
"S.S.S.D.D.A.v.u.! 7 + X X O O X X + - s ) | 2.5.7.2.;.U r - 7 T e.c.S.G.F.S.c.w.T 7 7 H w.c.A.F.F.S.c.w.Y 7 7 Y e.c.A.D.D.S.S.S.",
"S.S.S.D.D.S.b.i.~ 9 $ O O O O X X o & r P { | <.<.;.[ J w - 5 F #.s.v.M.n.v.s.#.D 5 5 D @.s.v.B.M.c.s.#.F 8 9 R e.b.A.D.D.S.S.S.",
"S.S.A.D.D.S.b.i.^ h % @ X O . . . X # > a J U ) / U J p - # * j R #.e.u.u.w.#.R 9 * * f T @.w.u.t.e.=.~ b t h ^ i.b.A.D.D.S.S.S.",
"S.S.A.D.D.A.m.a.+.n 2 % + X X .   . o & > w u p p r w : # o @ , j D H R R H D j , @ @ , f D H Q T T Y b y y n o.a.b.A.D.D.S.S.S.",
"S.S.A.D.D.A.m.f.%.W k 3 ; $ @ o + @ @ & & - - - : - - * & o # & , 5 7 7 8 8 5 , * # # * - 5 7 7 7 7 8 t y z W %.a.m.A.D.D.A.S.S.",
"A.S.S.S.D.A.B.k.r. .W n h 9 7 5 7 7 7 7 7 7 7 7 7 7 7 7 7 7 7 7 7 7 7 7 8 8 7 7 7 5 5 7 7 7 7 7 7 7 9 h n W  .r.k.V.S.D.S.S.S.S.",
"S.S.S.D.D.A.V.z.f.r.%.+.^ ~ ! Q T ! ! T T T Q T T T T T R R R T T T H T H H H T R R R R T T Y H H Y R ~ o.$.r.a.z.V.S.S.D.S.S.S.",
"S.S.S.S.S.S.Z.M.z.k.f.a.p.i.e.t.u.t.u.t.e.e.e.e.t.e.e.t.t.t.t.t.t.w.w.w.w.e.w.t.e.e.u.e.e.e.w.w.w.e.e.i.p.f.k.z.M.Z.S.S.S.S.S.S.",
"S.S.S.S.S.S.A.V.V.B.m.m.b.b.v.b.v.v.v.v.v.b.c.b.c.v.c.v.v.v.c.v.c.c.c.c.v.c.c.c.v.c.v.v.v.b.v.v.c.v.v.v.n.n.M.V.Z.A.A.S.S.S.S.S.",
"S.S.S.S.S.S.A.A.A.A.A.A.A.A.A.A.S.A.A.A.A.S.A.S.S.A.S.S.S.A.S.S.S.S.S.S.S.S.S.S.D.A.A.A.A.S.A.S.A.A.S.S.S.S.S.S.A.A.S.S.S.S.S.S.",
"S.S.S.A.S.S.S.D.D.D.D.D.D.D.D.D.D.D.D.D.D.D.D.D.D.D.D.D.D.D.D.D.D.D.D.D.D.D.D.D.D.D.D.D.D.D.D.D.D.D.D.D.D.D.D.D.S.S.S.A.S.S.S.S.",
"S.S.S.A.A.S.S.S.S.D.D.D.D.D.D.D.D.D.D.D.D.D.D.D.D.D.D.D.D.D.D.D.D.D.D.D.D.D.S.D.D.D.D.D.D.D.D.D.D.D.D.D.S.S.D.S.S.S.S.S.S.S.S.S.",
"S.S.S.A.A.S.S.S.A.S.A.S.D.A.A.A.S.S.S.S.S.S.S.S.S.S.S.S.S.S.S.S.S.S.S.S.S.S.S.S.S.S.A.S.A.D.A.S.D.A.A.A.S.S.S.S.S.S.S.A.A.A.S.S.",
"S.S.S.S.S.S.S.S.S.S.S.S.S.S.S.S.S.S.S.S.S.S.S.S.S.S.S.S.S.S.S.S.S.S.S.S.S.S.S.S.S.S.A.A.A.A.S.S.S.S.D.A.S.S.S.S.S.S.S.S.S.S.S.S.",
"S.S.S.S.S.S.S.S.S.S.S.S.S.S.S.S.S.S.S.S.S.S.S.S.S.S.S.S.S.S.S.S.S.S.S.S.S.S.S.S.S.S.S.A.D.A.S.S.S.S.A.A.S.S.S.S.S.S.S.S.S.S.S.S."
};
