/* XPM */
static char *result[] = {
/* columns rows colors chars-per-pixel */
"64 64 223 2 ",
"   c #061C23",
".  c #0C1C24",
"X  c #101F28",
"o  c #0C2326",
"O  c #0D2428",
"+  c #0C2C2B",
"@  c #072527",
"#  c #12262A",
"$  c #142B2C",
"%  c #182C2C",
"&  c #0E312E",
"*  c #13332E",
"=  c #1C362E",
"-  c #1C2D31",
";  c #133431",
":  c #1C3532",
">  c #153D35",
",  c #1A3B34",
"<  c #1C3D38",
"1  c #0F3530",
"2  c #202C31",
"3  c #233436",
"4  c #243638",
"5  c #243C3B",
"6  c #293F3E",
"7  c #203D2F",
"8  c #1B4237",
"9  c #1A433A",
"0  c #1B4539",
"q  c #224A3E",
"w  c #264637",
"e  c #2C563E",
"r  c #34543D",
"t  c #3B613F",
"y  c #234C40",
"u  c #2D4C44",
"i  c #264640",
"p  c #344843",
"a  c #255444",
"s  c #2A5345",
"d  c #275A48",
"f  c #2A5C49",
"g  c #295946",
"h  c #3C534D",
"j  c #355D4E",
"k  c #355446",
"l  c #385E51",
"z  c #2D654E",
"x  c #2F684E",
"c  c #32664C",
"v  c #336B4E",
"b  c #3C6643",
"n  c #2E6851",
"m  c #2E6750",
"M  c #326B51",
"N  c #3A6B56",
"B  c #377152",
"V  c #3B7353",
"C  c #3E7658",
"Z  c #3B704E",
"A  c #445A4D",
"S  c #465C55",
"D  c #4B5C56",
"F  c #4D5E58",
"G  c #46664B",
"H  c #4C764A",
"J  c #45764D",
"K  c #4E625A",
"L  c #456A57",
"P  c #54665E",
"I  c #53695F",
"U  c #437C55",
"Y  c #43735C",
"T  c #457A5D",
"R  c #47735A",
"E  c #527F51",
"W  c #527E4F",
"Q  c #566961",
"!  c #586C62",
"~  c #487B61",
"^  c #467A61",
"/  c #597465",
"(  c #597A68",
")  c #647B6B",
"_  c #617768",
"`  c #6B7F71",
"'  c #4A8457",
"]  c #4B8459",
"[  c #4E8A5A",
"{  c #488256",
"}  c #558B56",
"|  c #528C5B",
" . c #5A8857",
".. c #57915C",
"X. c #5E995E",
"o. c #5C955D",
"O. c #638C5B",
"+. c #619B5E",
"@. c #699D5D",
"#. c #649558",
"$. c #68A05F",
"%. c #4F8462",
"&. c #5B8B6F",
"*. c #548766",
"=. c #5B9265",
"-. c #5F9960",
";. c #678B61",
":. c #61856F",
">. c #718E6F",
",. c #639D61",
"<. c #669767",
"1. c #658973",
"2. c #7B8F7E",
"3. c #659275",
"4. c #6D967A",
"5. c #6E997B",
"6. c #669774",
"7. c #7A917D",
"8. c #779374",
"9. c #67A162",
"0. c #6AA364",
"q. c #6FA964",
"w. c #6EA46B",
"e. c #73AC66",
"r. c #77A96B",
"t. c #76B164",
"y. c #7BB569",
"u. c #7CB668",
"i. c #71A375",
"p. c #73A27C",
"a. c #7AAD76",
"s. c #7DB471",
"d. c #83BD6B",
"f. c #80B26D",
"g. c #86B974",
"h. c #85AA7B",
"j. c #86C16C",
"k. c #8AC46D",
"l. c #8DC473",
"z. c #8EC27D",
"x. c #90C677",
"c. c #92C779",
"v. c #93CA79",
"b. c #98D07D",
"n. c #7F9682",
"m. c #76A383",
"M. c #79A686",
"N. c #8A9D8A",
"B. c #859D85",
"V. c #8EA28D",
"C. c #80AB8A",
"Z. c #8BAE88",
"A. c #91A78E",
"S. c #89B48B",
"D. c #8DB586",
"F. c #95BA87",
"G. c #92A590",
"H. c #93AB92",
"J. c #98AE95",
"K. c #8EB393",
"L. c #96B798",
"P. c #9BB399",
"I. c #9BBD9C",
"U. c #98B595",
"Y. c #8FA590",
"T. c #A2BD99",
"R. c #A8BFA2",
"E. c #9DCC8A",
"W. c #9AC887",
"Q. c #9DC19D",
"!. c #9ED283",
"~. c #A1CB8D",
"^. c #A4D48B",
"/. c #A7C998",
"(. c #A5D290",
"). c #ACD993",
"_. c #ADD49E",
"`. c #AAD694",
"'. c #B0DF95",
"]. c #B2DD9A",
"[. c #B4E09C",
"{. c #9EC4A0",
"}. c #AACCA6",
"|. c #ABCCA8",
" X c #A6C7A4",
".X c #B1C8A8",
"XX c #B4D3AC",
"oX c #BBD6AE",
"OX c #BBDDAA",
"+X c #B4D7A2",
"@X c #BBDCB4",
"#X c #AFD2A0",
"$X c #BBE3A5",
"%X c #BEE2AA",
"&X c #C1D7B6",
"*X c #C2D9B7",
"=X c #C4DCB9",
"-X c #CCDEBF",
";X c #C1E6AC",
":X c #C5EAAE",
">X c #C7EAB1",
",X c #C7E2BC",
"<X c #CAE4BD",
"1X c #CCEBBA",
"2X c #C9EBB3",
"3X c #D1EDBF",
"4X c #D0F3B9",
"5X c #CCE6C1",
"6X c #CCE9C1",
"7X c #D2EDC3",
"8X c #D6ECC8",
"9X c #D5F1C2",
"0X c #D9F4C5",
"qX c #D7F1C8",
"wX c #DEF6CE",
"eX c #DFF9CC",
"rX c #D9F9C2",
"tX c #E0F8CF",
"yX c #E5FCD3",
"uX c #E9FED6",
"iX c #EBFFD8",
"pX c #F8FFE2",
"aX c #F7FFE1",
/* pixels */
"tXtXtXtXtXtXtXtXtXtXtXtXtXtXtXtXtXtXtXtXtXtXtXtXtXtXtXtXtXtXtXtXtXtXtXtXtXtXtXtXtXtXtXtXtXtXtXtXtXtXtXtXwXtXtXtXtXtXwXyXwXtXtXtX",
"tXtXtXtXtXtXtXtXtXtXtXtXtXtXtXtXtXtXtXtXwXtXwXwXtXtXtXtXtXtXtXtXtXtXtXtXtXtXtXtXtXtXtXtXtXtXtXtXtXtXtXtXwXyXtXtXtXtXtXtXwXtXtXtX",
"tXtXtXtXtXtXtXtXtXtXwXwXtXtXtXtXtXtXtXtXtXtXtXyXwXyXtXtXeXtXwXwXtXtXtXwXtXtXtXtXtXtXwXwXtXtXtXtXtXtXtXwXwXwXyXwXtXtXtXtXtXtXtXtX",
"tXtXtXtXtXtXtXtXtXtXwXtXwXtXtXtXtXyXyXyXyXyXyXyXyXyXyXyXyXyXuXyXyXyXuXyXyXyXyXyXyXyXyXyXyXyXyXtXtXtXtXwXwXwXwXwXtXtXtXtXtXtXtXtX",
"tXtXtXtXtXtXtXtXtXtXtXwXtXtXtXtXyXyXyXyXyXyXyXyXuXyXuXyXyXuXuXyXyXuXuXuXuXyXuXuXuXuXyXuXyXyXyXyXyXwXyXwXwXwXyXwXwXyXyXwXtXtXtXtX",
"tXtXtXtXtXtXtXtXtXtXtXtXtXwXtXtXwXwXwXwXtXtXtXtXwXwXwXwXwXwXwXwXwXwXwXtXwXwXwXwXtXtXwXwXtXtXtXtXwXwXwXwXyXwXwXwXwXwXwXwXtXtXtXtX",
"tXtXtXtXtXtXwXtXwXtXtXtXtXtXwXqX7X5X,X,X=X*X*X*X*X*X*X=X*X*X*X*X@X*X*X*X*X*X@X*X*X*X*X=X=X,X5X6XqXwXwXwXwXwXwXwXwXwXyXwXyXwXtXtX",
"tXtXtXtXtXtXwXwXwXtXtXyXyXtXwX5X@X}.Q.U.H.A.V.V.V.V.V.V.V.V.V.V.V.Y.V.V.G.V.V.V.V.Y.G.H.L.{.|.@X6XwXyXyXyXwXyXwXwXwXwXwXwXwXyXwX",
"tXtXtXtXtXtXtXtXtXtXtXyXyXtX8X@XQ.C.5.:.( Q P K P P P P P P P P P P P P I I P P P P ! ( :.5.C.{.@XqXyXuXyXwXwXwXtXwXtXtXtXtXtXtX",
"tXtXtXtXtXtXtXtXtXwXtXyXyXtX<X}.C.&.Y j u 6 4 3 3 4 4 7 3 4 4 7 4 4 4 4 4 4 4 4 3 4 6 u j Y &.C.}.<XwXyXyXyXwXwXwXyXtXtXtXtXtXtX",
"tXtXtXtXtXtXtXtXtXtXwXwXqX<XXXK.3.Y g q , 7 % # # o o # $ % % $ # # O O O O O o O O $ ; 9 d Y 1.K.XX<XqXqXwXwXyXwXwXtXtXwXtXtXtX",
"tXtXtXtXtXtXtXtXtXtX8X<X@X|.K.4.R s 8 8 w w w w = + + = w w w w = * + + + + + + + + + * 1 < s ^ 4.K.|.@X6XqXwXwXyXwXtXtXyXtXtXtX",
"tXtXtXtXtXtXtXtXyXtX6X@X{.C.3.^ s < , w t J H b e 0 w e b H H G k q 9 9 9 9 9 9 0 0 < > & * < u Y 1.C.{.@X7XwXyXyXwXwXyXwXwXwXwX",
"tXtXtXtXtXtXtXyXyXtX5X|.C.&.N u < $ = r H #.@...J v c { } 9.$...U v d d d d d z f f a 9 ; + $ < s Y &.C.|.6XwXyXtXyXwXwXwXyXwXyX",
"tXtXtXtXtXtXtXyXyXtX5XI.5.Y g < * + , r W @.e.w.=.%.] =.0.q.q.X.' B x z x z x n M m f y , $ + ; < g Y 5.Q.,XwXyXyXwXwXwXwXyXwXwX",
"tXtXtXtXtXtXtXyXyXwX,XL.:.j 9 1 & ; 8 k H o.0.r.p.p.p.i.i.0.-...{ Z M x z z z n n n z a 9 , ; ; 1 9 l :.L.,XwXuXyXwXyXwXwXwXwXyX",
"tXtXtXtXtXtXtXyXuXwX=XH.( s ; & > 9 q c Z { =.i.S.Q.Q.S.i.=.] C V M n n z z z z n z z f a q 9 1 & , u ( J.=XwXyXyXtXtXtXtXtXtXtX",
"tXtXtXtXtXtXtXyXyXwX*XG.! 6 $ + 8 a z z z Z %.p.Q.XXXXQ.p.%.V B M n n n n n n n n n m z z z a 9 + + 6 ! G.*XwXuXyXtXtXtXtXtXtXtX",
"tXtXtXtXtXtXtXyXuXwX*XY.P 4 O $ 9 d x v M V %.p.I.XXXXI.p.%.B n x n M N C T T T C C B B M m d 9 + O 4 Q Y.&XwXyXyXtXtXtXtXtXtXtX",
"tXtXtXtXtXtXtXyXyXwX*XV.P 4 o + 9 f M C U { =.p.S.Q.I.S.i.=.{ V M M M ^ &.6.5.6.=.| { { C M z 9 + o 3 P Y.@XwXuXyXtXtXtXtXtXtXtX",
"tXtXtXtXtXtXtXyXuXwX@XY.P 3 X + 9 f B { ..,.,.i.i.5.p.i.i.,.+.' C B C *.m.K.I.F.a.w.X.[ { B d 9 + O 3 P V.*XwXyXyXtXtXtXtXtXtXtX",
"tXtXtXtXtXtXtXyXuXwX*XV.P 4 O + 9 f B ] +.q.e.9.=.%.%.=.0.e.q.o.{ Z ^ 3.K.XX@X+XE.g.e.X.] V d 9 + O 4 P V.*XwXuXyXtXtXtXtXtXtXtX",
"tXtXtXtXtXtXtXyXuXwX*XY.P 4 O + 9 f V | ,.q.q.-.] C B { X.q.e.X.] U *.m. X<X9X1X[.W.g.0.[ V d 8 O O 4 P V.*XtXuXyXtXtXtXtXtXtXtX",
"tXtXtXtXtXtXtXyXuXwX*XV.P 4 O + 9 f M ] | -.,.| U v M C | X.+.o.| [ <.S.XX0XtXrX2X].E.a.=.C d 8 + O 4 Q V.*XwXuXyXtXtXtXtXtXtXtX",
"tXtXtXtXtXtXtXyXuXwX@XY.Q 4 O + 9 d M C ] ] ] U V M n B U { [ } ..+.a.W.@XqXyXtXrX>X_.D.6.U d 9 + o 3 Q G.*XwXyXyXtXtXtXtXtXtXtX",
"tXtXtXtXtXtXtXyXuXwX&XY.P 4 O + 9 d M B B V V B M M x M M V U | X.e.g.~.OX7XtXtXtXqX@XI.5.T d > O O 4 P Y.@XwXuXyXtXtXtXtXtXtXtX",
"tXtXtXtXtXtXtXyXuXwX&XY.Q 4 O + 9 f m M n n m z z f f z v B T -.e.l.W.~._.oX,X7XqXqX,X{.m.^ f 8 @ O 4 Q V.&XwXyXyXtXtXtXtXtXtXtX",
"tXtXtXtXtXtXtXyXuXtX*XV.Q 4 O + 9 f m n z z f a y y e f Z U | w.g.E.(.E.U.A.T..X5X8X5X Xm.^ f > @ O 3 Q Y.*XwXuXyXtXtXtXtXtXtXtX",
"tXtXtXtXtXtXtXyXuXwX*XY.Q 4 O + 9 f n n n z f a 9 , w e b } e.g.(._.#XP.h._ ` N..X5X5X|.m.~ d > + O 4 I V.*XwXuXyXtXtXtXtXtXtXtX",
"tXtXtXtXtXtXtXyXyXwX*XV.P 4 O $ 9 f x M M n f q , + = r W $.g.^.;X2X&XG.! A A _ P.*X,X|.m.T d 8 @ O 4 I V.*XwXuXyXtXtXtXtXtXtXtX",
"tXtXwXtXwXtXtXyXuXwX*XG.I 4 O + 9 f v B V B c q ; O % r  .f.W.$X4X3X&XN.P 4 3 P G.*X,X}.M.~ f > @ o 4 I Y.=XwXuXyXtXtXtXtXtXtXtX",
"tXtXtXwXwXtXtXuXuXtX=XG.Q 4 O + 9 f M C { ] U s ; . % k O.F.'.2X3XtX&XN.D 2 2 D V.@X6X|.M.~ f 8 + O 4 I G.=XtXuXuXtXtXwXwXtXtXtX",
"tXtXtXtXwXtXtXuXiXyX,XG.Q 4 O + 9 d B ] ..X. .t 7 X - S 8./.;XrXyXtX*XN.D 2 2 F V.&X<X|.M.~ d 8 @ O 4 I G.-XtXuXuXtXtXwXtXwXtXtX",
"tXtXtXtXtXwXtXyXuXwX@XY.Q 4 O + 9 d V [ ,.e.@.H w % 3 F B.XXqXuXyXtX*XV.F 4 4 P A.@X,X}.m.~ d > @ @ 4 I V.@XtXuXyXtXtXtXtXtXtXtX",
"tXtXtXtXtXtXtXwX8X5X.Xn.F - O + 9 d V | q.y.t.O.G r A _ J.=XtXiXiXtX=XJ.! A A _ U.oX@X{.p.T f 8 O o 3 K B..X5XqXwXwXtXtXtXtXtXtX",
"tXtXtXtXtXwXqX6X@X|.C.) h -   @ > a B | 9.y.f.r.O._ ` N..X5XuXiXiXtX3XR.N.` _ h.U._._.K.6.C d > @   $ k ) C.|.@X6XqXwXtXtXtXtXtX",
"tXtXtXtXtXtX6X@X{.C.1.L 5 O   @ > a v [ $.u.g.g.Z.A.T.R.=XqXyXuXiXtX8X=XR.P.J.P.E.~.W.a.=.N s > @   O 5 L 1.C. X@X6XwXyXyXtXtXtX",
"tXtXtXyXyXtX5X|.M.&.N s , O O ; 9 z V [ 9.u.l.E./.&X*X8X8XwXtXtXtXtXtX8X-X-X&X.X(.W.g.0.*.C f 9 * O # , u N &.C.|.5XwXyXyXwXtXtX",
"tXtXtXyXuXwX,XI.4.^ f i 5 5 i u l Y %.-.q.f.x.^.].2X3X0X9X9X3X9X3X9X3X9X0X4X2XOX^.v.u.0.-.%.Y l u 5 5 9 y g Y 5.Q.,XwXyXyXtXtXtX",
"tXtXtXyXyXtX=XL.:.j y u h K / ) 1.4.p.a.f.d.x.^.].;X2X2X:X;X%X;X;X;X;X:X>X:X;X'.!.x.u.s.a.p.5.1.) / K h y y j :.L.=XwXyXyXtXtXtX",
"tXtXtXyXuXwX=XK./ u i h ( n.G.P.I.Q.Q.W.c.l.l.b.^.).).).).).^.(.(.(.(.).).).).!.b.k.l.z.W.I.I.I.P.G.n./ h 9 u / H.=XwXyXyXtXtXtX",
"tXtXtXyXyXwX@XV.Q 6 4 S n.R.&X-X5X,X@X_.E.z.j.j.l.l.x.x.c.x.x.x.x.x.v.v.c.c.x.l.j.j.l.E.].@X,X5X5X&XR.n.S 5 6 Q V.*XwXuXyXwXtXtX",
"tXtXtXyXuXtX&XN.F 4 4 F N.@XtXiXuXtX7X%XE.g.u.t.t.y.u.d.d.j.j.j.k.d.d.d.u.u.t.t.t.u.g.E.OX9XtXuXiXtX&XN.K 4 4 K V.&XtXuXyXtXtXtX",
"tXtXtXyXuXtX&XN.F 3 4 P V.-XiXpXpXiXqXoXW.a.,.X.X.+.$.$.t.u.d.j.d.d.f.t.q.$.+.X.o.9.a.W.oXqXiXpXpXiX-XV.Q 4 3 F B.@XtXuXyXtXtXtX",
"tXtXwXuXyXwX@XN.F : 4 P G.-XiXpXpXiX8X|.S.<.[ U { { [ X.$.u.d.k.k.d.u.$.#.} ' { { ] <.S.XX8XiXpXpXiX-XV.K 4 3 F N.@XwXuXyXtXtXtX",
"tXtXwXyXuXwX*XN.K 4 4 K N.&XtXiXuXtX<X Xm.%.C v v V U ..$.y.j.k.k.d.d.$...{ V v v V *.M. X,XtXiXiXtX&XN.K 4 4 K N.@XwXyXyXtXtXtX",
"tXtXwXyXuXwX*XV.Q 6 4 S 2.R.*X<X<X*X.XK.3.T M z v V U ..q.u.j.k.k.k.u.$...U V v x M T 3.S..X&X5X-X@XR.n.S 5 w Q V.*XwXuXyXtXtXtX",
"tXtXwXyXuXwX*XK./ u w h / 2.N.G.H.A.B.4.~ N M v V ] ..,.t.d.k.l.k.k.d.e.+...] V M v N ~ 3.B.Y.H.G.N.n.! h 5 u ( G.=XwXuXyXtXtXtX",
"tXtXtXyXuXwX,XK.:.j y i k S K Q Q P P L N c M U [ -.0.t.u.d.k.k.k.k.d.u.e.0.-.[ C M m N L I P P Q K S h y y j :.L.=XwXyXyXtXtXtX",
"tXtXtXyXyXwX,XQ.5.Y g q 5 5 4 3 3 3 5 i s j B ] -.q.u.s.d.d.d.j.j.d.d.d.d.u.q.X.] N j g i 6 4 3 3 4 5 5 i s Y 4.Q.,XwXyXyXtXtXtX",
"tXwXtXyXyXwX<X}.C.&.Y l u 6 3 % X . O ; 9 d B ] -.q.y.u.u.y.y.u.u.u.u.u.u.y.q.-.] V d 0 ; X X X - : 6 u c ^ &.M.|.5XwXyXyXtXtXtX",
"tXwXwXyXyXwX7X@XQ.C.5.1.) Q D 6 -     + 9 d N U | -.9.9.0.9.,.9.0.,.9.9.9.9.X.| U B d < +   . 2 6 S ! ( 1.5.C.Q.@X7XwXyXtXtXtXtX",
"tXtXtXyXtXwXqX<X@X}.Q.I.P.Y.n.Q p #   + 9 d v V U ] } | | [ [ | | | | | [ [ ' U V n d 9 +   # w ! n.A.J.I.R.}.@X<X8XtXtXtXtXtXtX",
"tXtXtXtXtXwXwXqX7X<X<X1X,X@XR.n.D : . $ 9 d M M B V V V V V V V B V B V V Z V V B n d 9 + o 2 D n.R.*X,X,X,X6X7XqXwXwXtXtXtXtXtX",
"tXtXtXtXtXtXwXwXwXwXtXtXwX7X.XB.K 3 O * q c V C C V B v c z f d d d f c v Z V C C V c q * o 3 K B..X7XwXwXeXwXwXtXwXtXtXtXtXtXtX",
"tXtXwXwXwXtXtXyXyXyXtXtX9X>X/.7.A % o * e J ' | [ ' U v s 0 8 > < 9 y g v { ' [ [ ' J e = o 2 A 2./.>XrXeXtXyXyXyXtXtXwXwXtXtXtX",
"tXtXtXtXtXtXtXtXyXyXeX4X:X].F.O.p % o 7 t } @.9.$.+. .H e , + O @ + , e J } +.$.$.+.} b 7 o % r ;.g.'.:X3XwXtXyXyXwXtXtXtXwXtXtX",
"tXtXtXtXtXtXtXtXyXwX9X2X[.!.s. .r 2 % r H @.y.d.d.y.@.W r : O .   O , r W @.y.d.d.f.@.H w % 2 r O.f.E.[.2X0XtXyXtXtXtXtXtXwXtXtX",
"tXtXtXtXtXtXtXtXwXwX7X>X'.~.f.O.G r p G O.f.v.b.b.c.f.<.L p 4 2 - 4 p L <.f.x.b.b.c.g.O.G r p G O.f.E.].:X0XtXtXtXtXtXtXtXtXtXtX",
"tXtXtXtXtXtXtXtXyXwX0X1X;X_.W.h.>.) ) 8.h.~.).'.'.).(.h.8._ P P Q Q _ 8.h.E.).'.'.).~.h.8.) ) >.Z.W.).$X1X0XtXtXtXtXtXtXtXtXtXtX",
"tXtXtXtXtXtXtXtXtXwXwX7X2X;X+X.XT.J.J.T.#XOX;X:X:X;XOX_.T.J.G.G.V.G.J.T.#X;X;X;X:X;XOX.XT.J.J.T./.+X;X1X9XwXwXtXtXtXtXtXtXtXtXtX",
"tXtXtXtXtXtXtXtXtXtXtXwX9X9X3X1X-X&X*X,X<X3X7X8X9X9X3X<X=X*X*X*X&X&X&X-X3X7X7X9X9X7X3X<X-X=X&X=X<X7X9X0XqXwXtXtXtXtXtXtXtXtXtXtX",
"tXtXtXtXtXtXtXtXtXtXtXtXtXtXtXtXtXtXwXwXtXtXwXwXwXtXtXtXwXwXtXtXtXtXwXwXtXwXtXtXtXtXwXtXtXwXwXwXtXtXtXtXtXwXtXtXtXwXtXtXtXtXtXtX",
"wXtXtXtXtXtXwXwXtXtXtXtXtXtXyXyXyXiXuXuXuXyXyXyXyXyXyXuXuXuXuXiXiXuXuXuXuXyXyXyXyXyXtXuXuXuXiXiXiXyXyXtXtXtXtXwXtXwXtXtXtXtXtXtX"
};
