/* XPM */
static char *result[] = {
/* columns rows colors chars-per-pixel */
"64 64 137 2 ",
"   c #E0F8CF",
".  c #E2F9D1",
"X  c #E3FAD2",
"o  c #DFF7CE",
"O  c #D2EFC0",
"+  c #BAE0A5",
"@  c #A0D089",
"#  c #8EC575",
"$  c #E3F9D2",
"%  c #D3F0C1",
"&  c #BCE2A8",
"*  c #A4D28D",
"=  c #93C87A",
"-  c #E2F9D2",
";  c #D5F1C3",
":  c #C1E5AD",
">  c #ABD795",
",  c #9DCE85",
"<  c #E1F8D0",
"1  c #D7F2C6",
"2  c #C9E9B5",
"3  c #B9DFA4",
"4  c #ADD897",
"5  c #E0F8D0",
"6  c #DBF5C9",
"7  c #C8E9B5",
"8  c #C2E5AE",
"9  c #DEF6CD",
"0  c #DBF4C9",
"q  c #D7F2C5",
"w  c #E0F8CE",
"e  c #DFF8CE",
"r  c #D8F3C6",
"t  c #DBF5CA",
"y  c #DEF7CD",
"u  c #D2EFBF",
"i  c #C8E9B4",
"p  c #CAEAB7",
"a  c #D4F1C2",
"s  c #DCF6CB",
"d  c #B7DEA2",
"f  c #ACD796",
"g  c #ACD896",
"h  c #CCEBB9",
"j  c #DAF4C8",
"k  c #E1F9D1",
"l  c #9DCE86",
"z  c #AED898",
"x  c #C4E6B0",
"c  c #D4F0C2",
"v  c #9CCD84",
"b  c #A9D592",
"n  c #BBE1A7",
"m  c #CAEAB6",
"M  c #C9E9B6",
"N  c #B8DFA4",
"B  c #ACD795",
"V  c #A7D490",
"C  c #B2DB9D",
"Z  c #C1E4AD",
"A  c #B1DB9C",
"S  c #ABD794",
"D  c #DDF6CB",
"F  c #B9E0A4",
"G  c #A7D491",
"H  c #9BCD83",
"J  c #E4FAD3",
"K  c #B8DFA3",
"L  c #D1EFBF",
"P  c #E5FBD4",
"I  c #E3FAD3",
"U  c #E1F9D0",
"Y  c #DDF6CC",
"T  c #C3E6B0",
"R  c #C3E6AF",
"E  c #C9EAB6",
"W  c #D3EFC0",
"Q  c #DAF4C9",
"!  c #CBEBB8",
"~  c #BBE1A6",
"^  c #AFD999",
"/  c #AED999",
"(  c #9CCE85",
")  c #B4DC9F",
"_  c #9FCF87",
"`  c #90C678",
"'  c #92C779",
"]  c #BDE2A8",
"[  c #CDECBA",
"{  c #B6DEA1",
"}  c #89C26F",
"|  c #8DC474",
" . c #A1D089",
".. c #AED998",
"X. c #A1D18A",
"o. c #94C87B",
"O. c #89C270",
"+. c #85BF6B",
"@. c #A2D18A",
"#. c #BCE1A7",
"$. c #9CCE84",
"%. c #90C677",
"&. c #88C16E",
"*. c #87C16E",
"=. c #A6D48F",
"-. c #BEE3AA",
";. c #E5FBD5",
":. c #E4FAD4",
">. c #BEE2A9",
",. c #A5D38E",
"<. c #92C87A",
"1. c #BFE3AA",
"2. c #A6D490",
"3. c #BCE1A8",
"4. c #A2D18B",
"5. c #8EC474",
"6. c #CFEDBD",
"7. c #D8F3C7",
"8. c #A2D28B",
"9. c #A3D28C",
"0. c #BFE3AB",
"q. c #CFEDBC",
"w. c #D7F3C6",
"e. c #BFE4AB",
"r. c #A8D591",
"t. c #B1DB9B",
"y. c #C6E8B3",
"u. c #D5F1C2",
"i. c #C4E7B1",
"p. c #B0DA9A",
"a. c #A8D592",
"s. c #CCECB9",
"d. c #D6F2C4",
"f. c #A4D38D",
"g. c #BDE2A9",
"h. c #C0E4AB",
"j. c white",
/* pixels */
"                                                              . X o O + @ # # @ + O o X .                                       ",
"                                                              . $ o % & * = = * & % o $ .                                       ",
"                                                              . - o ; : > , , > : ; o - .                                       ",
"                                                              < . o 1 2 3 4 4 3 2 1 o . <                                       ",
"                                                              5 < o 6 O 7 8 8 7 O 6 o < 5                                       ",
"                                                                  o 9 0 q ; ; q 0 9 o                                           ",
"    w o o                                     o o w               e o o o o o o o o e                                           ",
"    o o o     5 < . . <         < . . < 5     o o o         o o o     < . - - . <     o o o                                     ",
"    o o o     < . - . . <     < . . - . <     o o o         o o o     5 < . . < 5     o o o                                     ",
"          e o o o o o o o o o o o o o o o o e               w o o                     o o w                                     ",
"          o 9 0 q ; ; r t y y t r ; ; q 0 9 o                                                                                   ",
"        < o 0 u i : 8 p a s s a p 8 : i u 0 o < 5                                                                               ",
"      < . o q i d f g + h j j h + g f d i q o . <                                                                               ",
"      k . o ; : f , l z x c c x z l , f : ; o - .                                                                               ",
"      k . o ; : g , v b n m m n b v , g : ; o - .                   w o o                                     o o w             ",
"      < . o q M N B V > C N N C > V B N M q o . <                   o o o     5 < . . <         < . . < 5     o o o             ",
"        < o 6 % p Z 3 A S V V S A 3 Z p % 6 o < 5                   o o o     < . - . . <     < . . - . <     o o o             ",
"          o y D j a p F G H H G F p a j D y o                             e o o o o o o o o o o o o o o o o e                   ",
"          e   k . o a Z B , , B Z a o . k   e                             o 9 0 q ; ; r t y y t r ; ; q 0 9 o                   ",
"    o o o     - J . j p K g g K p j . J -     o o o                   5 < o 0 u i : 8 p a s s a p 8 : i u 0 o < 5               ",
"    o o o     k - k D % 2 : : 2 % D k - k     o o o                   < . o q i d f g + h j j h + g f d i q o . <               ",
"    w o o           y 6 q ; ; q 6 y           o o w                   . - o ; : f , l z x c c x z l , f : ; o - .               ",
"                  e o o o o o o o o o                                 . - o ; : g , v b n m m n b v , g : ; o - .               ",
"            o o o     < . - - . <     o o     5 < . . <         < . . $ $   q 2 K B V > C N N C > V B N M q o . <               ",
"            o o o     5 < . . < 5     o o     < . - . . <     < . . - $ .   6 % p Z 3 A S V V S A 3 Z p % 6 o < 5               ",
"            w o o                         o o o o o o o o o o o o o o     o y D j a p F G H H G F p a j D y o                   ",
"                                          o 9 0 q ; ; r t y y t r ; ; q 0 9   . - o a Z B , , B Z a o . k   e                   ",
"                                      5 < o 0 u i : 8 p a s s a p 8 : i L 0   J P . j p K g g K p j . J -     o o o             ",
"                                      < . o q i d f g + h j j h + g f d i q   I J . D % 2 : : 2 % D k - k     o o o             ",
"                                      . - o ; : f , l z x c c x z l , f : ; o X -   y 6 q ; ; q 6 y           o o w             ",
"                                      . - o ; : g , v b n m m n b v , g : ; o - .   o o o o o o o o                   o o w     ",
"                                      < . o q M N B V > C N N C > V B N M q o . <     < . - . . <       < . . < 5     o o o     ",
"                                      5 < o 6 % p Z 3 A S V V S A 3 Z p % 6 o <       5 < . . <       < . . - . <     o o o     ",
"                                          o y D j a p F G H H G F p a j D y o                       o o o o o o o o e           ",
"                            w o o             . . o a Z B , , B Z a o . k   e       w o o           y t r ; ; 1 6 9 o           ",
"                            o o o       < . - J P - j p K g g K p j . J -     o o o o o o     U - k Y c p T R E W 6 o <         ",
"                            o o o     < . - X I J . D % 2 : : 2 % D k - k     o o o o o o     - J . Q ! ~ ^ / F E r o k <       ",
"                                  e o o o o o       y 6 q ; ; q 6 y           o o w       e   k . o c Z > ( , > Z ; o . k       ",
"o                     o o           y t r ; ; 1 6 9 o     o o o o o e                     o y Y 0 ; 2 ) _ ` ' * ] % o $ .       ",
"o       < . . < 5     o o     U - k Y c p T R E O 6   . - - - . <     o o o             < o t ; [ R { * = } |  .~ O o X .       ",
"o     < . . - . <     o o     - J . Q ! ~ ^ / F M r   - $ . . < 5     o o o           < . o r h ] ..X.o.O.+.| @.#.O o X .       ",
"  e o o o o o o o o           k . o c Z > ( , > Z ; o - .             o o w           . - o ; R ^ $.%.&.+.*.' =.-.% o $ .       ",
"  o 9 6 r ; ; r t y   <     y Y 0 ; 2 ) _ ` ' * ] % o $ .                             . $ o % -.=.' *.+.&.%.$.^ R ; o . k       ",
"k o 6 % p R T p c Y . X -   t ; [ R { * = } |  .~ O o X .                             . X o O #.@.| +.O.o.X...] h r o k <       ",
"$ o r p + ^ ^ ~ ! Q . ;.:.  r h ] ..X.o.O.+.| @.#.O o X .                             . X o O ~  .| } = * { R [ ; t o <         ",
"J o ; 8 4 , ( > Z c o J :.o ; T ^ $.%.&.+.*.' =.-.% o $ .                             . $ o % ] * ' ` _ ) 2 ; 0 Y y o           ",
"P o % >.,.<.` _ ) 2 ; Y   9 % 1.2.' *.+.&.%.$.^ R ; o - .                             . - o ; Z > , ( > Z c o . k   e           ",
"P o O 3.4.5.} = * { R 6.7.6 O ] 8.| +.O.o.X...] h r o . <                             < . o r E F / ^ ~ ! Q . J -     o o o     ",
"P o O ] 9.| +.O.o.X...0.q.w.O ] 4.| } = * { R [ ; t o <                                 < o 6 W E R T p c Y k - U     o o o     ",
"P o % e.r.' *.+.&.%.( t.y.u.W 0.=.<.` _ ) 2 ; 0 Y y o                                     o 9 6 1 ; ; r t y           o o w     ",
"J o ; i.p.( %.&.+.*.' a.: % c x .., ( > Z c o . k   e                                     e o o o o o o o o e                   ",
"$ o r s.>...X.o.O.+.| 9.>.O q s.#.^ ^ ~ ! Q . J -     o o o                         o o o     < . - - . <     o o o             ",
"k o t ; [ R { * = } | @.#.O Q d.h x T p c Y k - U     o o o                         o o o     5 < . . < 5     o o o             ",
"  o y Y 6 ; 2 ) _ ` ' f.g.% Y y j ; ; r t y           o o w                         w o o                     o o w             ",
"  e   U . o c Z > ( , > : ; o . U o o o o o e       w o o                                     o o w                             ",
"o     . J . Q ! ~ ^ / F M r   X X - - . <     o o o o o o     5 < . . <         < . . < 5     o o o                             ",
"o     U . k Y c p T R E O 6   . . . . < 5     o o o o o o     < . - . . <     < . . - . <     o o o                             ",
"o           y t r ; ; 1 6 9 o                 o o w       e o o o o o o o o o o o o o o o o e                                   ",
"          e o o o o o o o o e                             o 9 0 q ; ; w.t 9 9 t w.; ; q 0 9 o                                   ",
"    o o o     < . . . . <     o o o                   5 < o 6 O 7 8 8 E % 0 0 % E 8 8 7 O 6 o < 5                               ",
"    o o o       < k k <       o o o                   < . o 1 2 3 4 ..+ ! q q ! + ..4 3 2 1 o . <                               ",
"    w o o                     o o w                   . - o ; : > , , 4 x a a x 4 , , > : ; o - .                               ",
"                                                      . $ o % & * = = =.h.W W h.=.= = * & % o $ .                               ",
"                                                      . X o O + @ # # 8.>.u u >.8.# # @ + O o X .                               "
};
