/* XPM */
static char *result[] = {
/* columns rows colors chars-per-pixel */
"64 64 185 2 ",
"   c #0C1D24",
".  c #0D2325",
"X  c #0F2529",
"o  c #0F2F2B",
"O  c #102426",
"+  c #11252A",
"@  c #162C2C",
"#  c #192E2C",
"$  c #13312D",
"%  c #1A302C",
"&  c #1D3D2F",
"*  c #1D2D32",
"=  c #1F3034",
"-  c #173934",
";  c #1C3935",
":  c #1D3B38",
">  c #213335",
",  c #253739",
"<  c #263A3A",
"1  c #293F3E",
"2  c #1D443B",
"3  c #1D4838",
"4  c #2C4C36",
"5  c #23443D",
"6  c #29403F",
"7  c #22493C",
"8  c #304F37",
"9  c #2B553E",
"0  c #32533A",
"q  c #385B3F",
"w  c #303F42",
"e  c #264B41",
"r  c #2B4B44",
"t  c #314A45",
"y  c #344A48",
"u  c #275144",
"i  c #295747",
"p  c #2C5946",
"a  c #2B5948",
"s  c #35524A",
"d  c #3C524D",
"f  c #365E4F",
"g  c #3B5550",
"h  c #3B6544",
"j  c #33664C",
"k  c #376B4E",
"l  c #3C6052",
"z  c #3E6E58",
"x  c #396C50",
"c  c #3D7655",
"v  c #465B54",
"b  c #475A56",
"n  c #497449",
"m  c #42734D",
"M  c #527D4C",
"N  c #4E635A",
"B  c #446C5A",
"V  c #52645D",
"C  c #53695F",
"Z  c #457B53",
"A  c #47735B",
"S  c #556660",
"D  c #576A62",
"F  c #586A62",
"G  c #497C61",
"H  c #597365",
"J  c #5C7568",
"K  c #5D7A6A",
"L  c #5A7867",
"P  c #687C6F",
"I  c #6B7E71",
"U  c #55814E",
"Y  c #4A8456",
"T  c #588D58",
"R  c #588956",
"E  c #5B925C",
"W  c #57915D",
"Q  c #619B5E",
"!  c #6A9E5D",
"~  c #4E8364",
"^  c #5B8B6F",
"/  c #528564",
"(  c #5F9666",
")  c #659B66",
"_  c #648470",
"`  c #638C73",
"'  c #798E7C",
"]  c #6C957A",
"[  c #7A927F",
"{  c #709A7D",
"}  c #6BA564",
"|  c #6EA569",
" . c #67A264",
".. c #75AA62",
"X. c #78AE63",
"o. c #73A760",
"O. c #79B267",
"+. c #77B369",
"@. c #7BB568",
"#. c #7EB96A",
"$. c #78A778",
"%. c #81BC66",
"&. c #84BF6A",
"*. c #83B974",
"=. c #89BE77",
"-. c #86C06C",
";. c #89C46D",
":. c #8CC86E",
">. c #8CC473",
",. c #90C677",
"<. c #91C779",
"1. c #93C97A",
"2. c #7C8E80",
"3. c #7E9481",
"4. c #739F82",
"5. c #7BA886",
"6. c #8B9F8B",
"7. c #849F84",
"8. c #8EA28D",
"9. c #81AB8B",
"0. c #8AAC8E",
"q. c #90A48F",
"w. c #8FA991",
"e. c #92A691",
"r. c #95AD94",
"t. c #99AE96",
"y. c #8DB393",
"u. c #9AB097",
"i. c #9DB299",
"p. c #9AB99B",
"a. c #97B197",
"s. c #87B687",
"d. c #A7BEA2",
"f. c #9BCD83",
"g. c #96C48C",
"h. c #9FCE8B",
"j. c #96C485",
"k. c #9DC29D",
"l. c #A4D38D",
"z. c #A7D490",
"x. c #A9D692",
"c. c #ABD992",
"v. c #AFD999",
"b. c #ABD09C",
"n. c #9EC4A0",
"m. c #A0C5A1",
"M. c #ABC2A5",
"N. c #A5C9A5",
"B. c #A8CBA7",
"V. c #ACC9A8",
"C. c #B1C6A9",
"Z. c #B3C8AB",
"A. c #AED3AA",
"S. c #B5DCA2",
"D. c #B5D2AC",
"F. c #BADFA8",
"G. c #BDDDB6",
"H. c #BFDFB8",
"J. c #BAE0A5",
"K. c #BEE3A9",
"L. c #BFE0B3",
"P. c #C0D7B5",
"I. c #C1D8B6",
"U. c #C6DDBA",
"Y. c #C9DFBC",
"T. c #C2E5AE",
"R. c #C4E9AE",
"E. c #C9EAB6",
"W. c #C7E3BD",
"Q. c #CAE4BE",
"!. c #CDECBB",
"~. c #D1EDBF",
"^. c #CAF0B2",
"/. c #CDE5C0",
"(. c #CEEBC1",
"). c #D3EDC3",
"_. c #D4F1C2",
"`. c #D8F4C6",
"'. c #D7F1C8",
"]. c #DEF6CD",
"[. c #DFF8CE",
"{. c #E0F8CF",
"}. c #E4FBD2",
"|. c #E9FFD6",
" X c #ECFFD8",
/* pixels */
"{.{.{.{.{.{.{.{.{.{.{.{.{.{.{.{.{.{.{.{.{.{.{.}.|.|. X X|. X X|. X X X X X|.|.|.}.{.{.{.].{.{.{.{.{.{.{.{.{.{.{.{.{.{.{.{.{.{.{.",
"{.{.{.{.{.{.{.{.{.{.{.{.{.{.{.{.{.{.{.{.{.{.{.{.{.].].{.[.[.[.].].].[.{.[.].].].{.{.{.{.{.{.{.{.{.{.{.{.{.{.{.{.{.{.{.{.{.{.{.{.",
"{.{.{.{.{.{.{.{.{.{.{.].{.{.{.{.{.{.{.{.{.{.].)./.U.P.P.I.I.I.I.P.P.I.I.P.I.U./.).].{.}.{.}.{.{.{.{.{.{.{.].{.{.{.{.{.{.{.{.{.{.",
"{.{.{.{.{.{.{.{.{.{.].[.{.{.{.{.{.}.|.}.|.}.`.U.C.i.e.6.8.8.8.8.6.8.8.8.8.e.u.C.Y.'.}.|.}.}.}.}.{.{.{.{.].].{.{.{.{.{.{.{.{.{.{.",
"{.{.{.{.{.[.{.{.{.{.{.{.].{.{.{.}.}.|. X X}.).C.8.I F V V V V V V V V V V F I 8.C.).}. X|.|.|.}.{.{.{.{.].{.{.{.{.{.{.{.{.{.{.{.",
"{.{.{.{.{.{.{.{.{.{.{.{.{.{.].{.{.{.{.}.}.[.U.a.P v < = = < , < < < , > = , v P t.U.{.}.}.[.{.{.{.{.{.{.{.{.{.{.{.{.{.{.{.{.{.{.",
"{.{.{.{.{.{.[.[.].{.{.}.}.{.].)./.U.I.U.Y.P.M.3.b < + + @ > , , , , > @ X + > N 7.d.P.U.U.P.U./.).{.{.{.{.{.{.{.].].{.{.{.{.{.{.",
"{.{.{.{.{.{.[.[.{.{.{.}.}.}.'.U.V.u.e.8.8.6.' H s = $ : t b N V V N b t : $ = s H ' 6.8.8.q.u.M.U.'.}.|.}.{.{.{.{.].{.{.{.{.{.{.",
"{.{.{.{.{.{.[.[.].{.{.|.|.}.).Z.8.P S N b V b s e 2 r l P [ 6.e.e.6.3.K l r 2 e s b N N b D I 6.C.).}.|.|.{.{.{.].{.{.{.{.{.{.{.",
"{.{.{.{.{.{.{.{.{.{.{.}.}.].U.t.P y , * = , < 5 7 a z ` 0.V.P.Y.Q.P.C.0.` z i e 2 < , * * , d I t.U.{.|.}.{.{.{.{.{.{.{.{.{.{.{.",
"{.{.].].].{.{.}.{.{.].].).U.d.7.N w + + @ > 1 r f A ^ 5.N.Q.{.|.}.{.Q.N.9.^ A f r 1 > @ X X < N 7.d.U.).'.].{.{.{.{.{.{.{.].{.{.",
"{.{.{.].{.{.}.}.}.}.'.Y.Z.t.3.D y : $ : t b V K ` ] 9.n.G.'.}. X X}.'.H.n.5.] _ K V b t : $ ; s F 2.u.Z.Y.'.}.}.}.{.{.{.].].{.{.",
"{.{.{.].].{.{.}. X}.).Z.6.P b d e 2 e f K 3.8.t.p.n.B.G./.[.}.|. X}.]./.G.B.n.p.r.8.[ K l e 2 7 y N P 6.Z.).|. X}.{.{.{.{.].{.{.",
"{.{.{.{.{.{.{.}.}.].U.t.P d < : 2 a z ^ 0.C.G.W.W.W./.(.'.].{.}.}.}.[.'.(./.W.W.W.G.V.0.^ z i 2 : 1 d P u.U.{.}.}.{.{.{.{.{.{.{.",
"{.{.{.{.{.{.].'.).U.d.3.N < @ - u z ` 5.N.Q.{.}.}.{.{.[.{.].{.{.[.{.[.{.{.[.[.}.}.{.Q.B.9.^ A u ; $ < N 2.d.U.).'.{.{.{.{.{.{.{.",
"{.{.{.{.}.{.).U.Z.t.3.H s : - r B ] 5.n.L.'.}. X}.}.}.}.{.{.{.{.[.{.{.{.}.}.}. X X}.'.U.m.9.` B e - ; y D 7.t.C.U.).{.{.{.{.{.{.",
"{.{.{.}.}.{./.C.6.P N s e 2 u B ` y.B.G.(.].}.}.|.}.}.{.{.{.{.{.[.{.{.{.}.}.}.}.}.}.{.).L.B.y.` B i 2 5 s N P 6.C./.[.}.}.[.{.{.",
"{.{.}.}.}.{.U.t.P d < ; 2 i A ` y.D.(.'.].].{.}.{.{.{.{.{.{.{.{.{.{.{.{.[.{.}.{.}.{.].'.'./.D.y.` z a 2 ; 1 d P t.I.}.}.}.[.{.{.",
"{.{.{.}.}.[.I.q.V , + $ e z ^ 9.A./.].}.}.{.{.{.{.{.{.{.{.{.{.{.{.{.{.{.{.{.{.{.{.{.}.}.}.{./.B.9.^ z e $ + , V q.I.}.}.}.[.{.[.",
"{.{.{.}. X}.U.8.V * X = g ` 9.m.G.'.}.}.}.{.{.{.{.].{.{.{.{.{.{.{.{.{.{.{.{.].{.{.{.}.}.}.}.'.G.N.5.` l = + = V 8.U.}. X}.}.{.[.",
"[.{.}.|. X}.Y.8.b > @ t K 0.B.H.).'.}.}.}.{.{.[.].{.{.{.{.{.{.{.{.{.{.{.{.{.[.].{.{.{.}.}.}.].(.L.B.0.K r + * N 6.U.}. X|.}.[.[.",
"{.[.{.}.}.{.P.6.N , , b [ V./.].].].{.{.[.{.{.[.].].{.{.{.{.{.{.{.{.{.{.{.{.{.].].{.{.{.{.{.].].'./.V.2.b , , N 6.I.].|.}.}.[.{.",
"{.[.].'.).U.M.' b < 6 S 8.G.{.}.}.{.{.{.{.{.{.{.{.{.{.{.{.{.{.{.{.{.{.{.{.{.{.{.{.{.{.{.{.{.}.}.}.{.U.8.C r , b 2.d.U.).'.].[.{.",
"}.].'.U.Z.u.3.H s e r K t./.}. X}.}.{.[.[.[.{.{.{.{.{.{.{.{.{.{.{.{.{.{.{.{.{.{.{.{.[.].[.{.}.}. X}./.a.K r 6 s H 7.u.C.Y.).{.}.",
"|.[./.C.8.P N s r e l ` p.(.}. X X{.{.{.[.].{.{.{.{.{.{.{.{.{.{.{.{.{.{.{.{.{.{.{.{.{.{.].{.{.|. X}./.p.` f r 7 y N I 8.V./.{.|.",
" X].U.t.I d < ; 2 i A ] k.W.[.}.}.{.{.{.{.{.{.{.{.{.{.{.{.{.{.{.{.{.{.{.{.{.{.{.{.{.{.{.].{.{.}.}.]./.n.] A p 3 ; 1 d I u.U.[.|.",
" X].I.e.F < . o 3 j ~ $.k.L.~.[.[.{.{.{.[.{.{.[.{.{.{.{.{.{.{.{.{.{.[.{.].{.{.{.{.{.{.{.{.].].[.[._.L.k.$.~ j 7 o X , D e.P.]. X",
" X[.I.8.V = . $ u Z ( $.g.S.R.!.'.[.{.}.}.{.}.{.{.{.{.].].{.{.{.{.{.[.].].{.{.{.{.{.}.{.}.}.].'.!.T.S.g.$.( Z 9 $ . * S 8.P.]. X",
" X].P.8.S * . & h T } *.<.h.v.K.!.`.}.}.}.}.}.}.{.{.{.{.[.[.{.{.{.{.{.{.].{.{.{.}.}.}.}.}.}.].!.K.v.h.j.#.| T h & O > V 8.P.[. X",
" X].P.e.S , @ 4 n ! @.-.>.,.f.v.T.'.{.{.}.[.{.{.{.].{.{.{.{.{.{.{.{.{.{.{.{.].{.[.[.].{.}.[._.K.v.f.,.;.-.@.) n 4 @ , S e.P.[. X",
" X].I.8.S , # 4 M o.-.;.-.-.>.h.S.E._.'.).)._.`.'.[.{.{.{.{.{.{.{.{.{.{.{.{.[.'.'._._.'._._.E.S.h.,.-.-.;.&.o.M 4 # , S e.I.]. X",
" X].I.e.S , % 0 U X.;.;.;.-.>.f.x.S.K.K.K.T.T.E.).{.}.{.{.}.{.}.{.}.{.{.}.}.[.).!.R.K.K.K.K.J.z.f.;.-.;.;.;.X.U 8 # , S 8.P.]. X",
" X[.I.8.C < % 8 U X.;.>.;.;.;.>.1.l.z.l.z.x.v.F.~.`.}.}.}.{.}.{.}.}.}.}.}.}.'.!.F.v.z.z.z.l.l.1.<.&.&.:.:.;.X.M 8 % < V q.I.[. X",
" X[.I.e.S > % 4 M o.&.;.;.&.&.;.,.,.<.,.<.1.1.v.T.).{.{.{.{.{.[.].].[.{.{.{.'.T.v.f.<.,.,.<.<.;.;.&.&.;.;.&.o.M 4 % , D q.I.[. X",
" X[.I.8.S , @ 4 n ! #.&.&.&.-.-.&.;.&.&.&.&.,.l.S.E.~.`.'.).~.).).).)._.`.~.E.S.l.,.&.&.&.&.&.;.&.&.&.&.&.@.! n 4 @ , V q.P.[. X",
" X[.I.8.V > O & h T  .X.#.%.-.-.&.&.%.%.%.&.,.1.c.S.F.T.T.T.T.K.K.T.K.T.T.T.S.x.f.;.&.%.%.&.&.&.&.&.&.*.+.} E h & . = C 8.P.]. X",
" X].P.6.V = . $ 9 Z W  .+.#.-.-.&.&.&.%.&.&.;.<.1.l.z.z.x.x.l.x.z.z.z.x.z.z.l.1.,.&.&.&.&.&.&.&.;.&.%.X.) W Z 9 $ . = V 8.P.{. X",
" X].U.e.D < X $ 3 j Z W } @.-.-.-.&.&.&.&.&.&.>.<.<.<.<.1.1.<.<.,.<.1.1.<.<.,.,.,.&.&.&.&.&.&.&.;.&.O.| ( Z j 3 $ + , F e.P.[. X",
"|.].U.i.I d 1 : 7 i x Y ! +.;.;.;.;.;.&.&.&.;.&.&.&.&.;.&.&.;.&.&.&.&.&.;.&.&.&.>.&.&.&.&.&.;.;.;.&.%.! Y k i 5 : < d I u.U.].|.",
"|.{.Q.C.8.P N g r e i m E X.-.;.;.&.&.&.&.&.&.&.&.&.&.%.%.%.&.&.&.&.&.%.%.&.&.&.&.&.&.&.&.;.&.;.>.&.X.E m i e r g N I 6.C./.[.|.",
"}.[.).Y.Z.t.7.H d 5 7 h T X.-.;.;.&.&.&.&.&.&.&.&.&.&.&.&.%.&.&.&.&.&.&.&.&.&.&.&.&.&.&.&.&.>.;.:.;.O.R h 7 5 d J 3.t.Z.U.).{.}.",
"{.[.].'.).Y.d.2.N < = 0 U ..-.;.;.&.&.;.;.&.&.&.&.&.&.&.&.&.&.&.&.&.&.&.&.&.&.&.&.;.&.&.&.;.&.;.;.&.o.U 0 ; < b 3.M.U.'.'.].{.}.",
"{.[.{.}.|.].P.6.V > @ 4 n ! @.-.&.&.&.&.;.&.=.;.&.;.&.&.;.&.;.&.&.&.&.;.&.&.&.&.&.&.;.&.&.&.&.&.&.@.! n 4 @ , V 6.I.[.}.}.{.].{.",
"[.{.{.|. X}.Y.e.N * . & h T } +.&.&.:.>.;.;.;.>.;.;.;.;.;.&.;.&.;.;.&.;.;.;.>.;.:.;.>.:.;.>.&.&.+.} R h & . * V 8.U.}. X X{.{.{.",
"[.{.}. X X}.I.6.V =   $ u Z W  .X.&.>.:.:.:.:.;.;.;.;.;.;.;.;.;.;.;.;.;.;.;.>.:.:.>.>.:.:.;.&.O.} W Z 9 $   = V 8.U.}. X}.}.[.[.",
"[.{.{.}.|.].I.e.V , + @ 7 j Z W | %.&.&.&.&.&.&.;.&.&.;.&.&.&.;.&.&.&.&.&.&.&.&.&.&.&.&.&.&.O.} W Z j 7 $ X , C e.I.[.|.}.}.{.[.",
"{.{.{.}.}.].Y.u.P s 1 : 7 i j Z R ! o.X.o.......o.X.X.X.X.+.@.@.O.O.O.....X.o.X.o.X.o.X.X.o.! U Z j i 2 : < d P t.U.[.}.}.{.{.{.",
"{.{.{.}.}.{./.C.8.P N s r 5 7 9 h n M M M M M M U U U T E E E ) Q Q Q Q T R M M M M M M M M n m 9 7 2 r d N P 6.C./.[.}.}.{.{.{.",
"{.{.{.}.{.{.).Y.C.t.2.J g - o $ & 4 4 8 8 8 8 8 8 0 q m m Z Y Y Y Y Y m h q 0 0 8 8 4 8 4 4 4 & $ $ : s H 2.u.Z.U.).{.}.{.{.{.{.",
"{.{.{.[.{.[.].'.).U.d.7.N w X   O @ # # # @ # @ @ # & < a x c c c c k p 7 = # @ # # # # % # @ O . X 1 N 7.d.U.).'.].{.{.{.{.{.{.",
"{.{.{.{.[.[.}.}.}.].U.t.I d , = > , , , , , > *     O , s z G ~ ~ A B s < X     @ > , , , , , > * , d I u.Y.{.}.}.{.{.{.{.{.{.{.",
"{.{.[.[.[.[.}.}. X X).Z.6.I D N V S V F F V b w *   X 6 B ` 4.5.5.5.` B 5 +   * w b S F F V V V V S I 6.Z.).|.|. X{.{.].{.].{.{.",
"{.{.].{.].{.}.}.|.}.].W.Z.i.e.e.q.q.q.e.e.6.6.F w + # s P y.N.D.A.n.y._ y @ + w F 2.q.e.e.q.q.q.8.e.i.C.Y.].|.|.}.{.{.].].].{.{.",
"{.{.{.].].{.{.}.{.{.].'./.U.P.P.P.P.I.U.Y.P.d.I b > > v [ V.W.).(./.V.3.N = > v ' d.P.Y.W.I.I.I.I.I.W.Q.).].{.{.}.{.{.{.].{.{.{.",
"{.{.{.{.{.].].`.`._.~.~.~.).).).~.~.~.~.'.).Z.*.N 6 < v ' d.P.Y./.G.d.2.b < 1 N 7.D.).`.`.~.~.~.).).~.~.~.)._.`.'.{.].{.{.{.{.{.",
"{.{.{.{.{.{.'.).E.T.K.K.T.R.T.T.^.R.^.E.^.U.b.9.C 7 5 d J 7.8.r.r.q.3.H d < r N *.b.R.E.^.R.R.R.R.R.R.T.K.K.T.E.).].{.{.{.{.{.{.",
"{.{.{.}.{.{.`.E.F.x.l.l.l.z.c.c.x.c.c.c.c.c.j.| Z a 7 r d b V S S V b g r 7 a Z | g.x.v.c.c.c.c.c.z.c.l.l.z.x.J.E.).{.{.{.{.{.{.",
"{.{.{.{.{.{.'.T.v.f.1.,.,.1.1.,.1.1.1.1.1.1.*.} / x a e 6 1 , , , , , e r a z T | *.1.1.1.1.1.1.1.1.1.,.,.1.f.v.T.).{.{.{.{.{.{.",
"{.{.{.{.}.{.).T.v.f.1.,.<.1.1.<.1.1.1.1.1.1.>.$.) / A l y 6 , , , , w r l B / ) $.>.1.1.1.1.1.1.1.1.,.,.,.1.f.v.T._.{.{.}.{.{.{.",
"{.{.{.{.{.{.`.E.J.v.x.l.l.l.l.l.l.l.l.l.c.l.h.g.s.5.{ ` K D V V N V D K ` { 5.s.g.h.l.l.c.l.l.l.l.l.l.l.l.l.v.F.!.`.{.}.{.{.{.{.",
"{.{.{.{.{.{.'.~.E.T.K.K.J.K.K.K.K.K.K.K.K.K.F.D.A.N.n.p.a.e.8.6.8.q.w.r.p.n.N.A.D.J.K.J.K.K.K.K.K.K.K.K.J.T.T.E.).'.{.{.{.{.{.{.",
"{.{.{.{.{.[.{.].`._.).).).~.~._.).)._._._.~.).(.!./.W.W.I.I.G.P.G.I.I.I.U./.Q.Q.(.)._._._.~._.).).~.~.~.~.).).`.].].].{.{.{.{.{.",
"{.{.{.{.{.{.{.{.[.[.{.{.[.}.{.[.{.{.{.[.[.[.].{.].[.[.[.].].].].].].{.{.[.[.[.[.].{.[.{.[.[.{.[.{.{.{.{.{.{.[.{.{.].{.{.{.{.{.{.",
"{.{.].{.{.{.{.{.{.}.}.}.}.}.}.}.}.}.}.}.}.}.|.}.}.|.|.|.|. X|. X X X X X}.|. X}.|.}.}.}.}.}.|.}.}.}.}.}.}.}.}.}.{.{.{.].{.{.{.{."
};
